<mxfile host="app.diagrams.net" modified="2023-06-28T15:19:16.285Z" agent="Mozilla/5.0 (Windows NT 10.0; Win64; x64) AppleWebKit/537.36 (KHTML, like Gecko) Chrome/114.0.0.0 Safari/537.36 Edg/114.0.1823.58" etag="HDVlWpxfDRBH7FqIpJFS" version="21.5.1" type="google">
  <diagram name="PÃ¡gina-1" id="xoHPXSce7bDZS1U5sztJ">
    <mxGraphModel dx="3299" dy="2331" grid="1" gridSize="10" guides="1" tooltips="1" connect="1" arrows="1" fold="1" page="1" pageScale="1" pageWidth="827" pageHeight="1169" math="0" shadow="0">
      <root>
        <mxCell id="0" />
        <mxCell id="1" parent="0" />
        <mxCell id="kQ22yX0z1VIjIpw_Q_5K-1" value="&lt;font style=&quot;font-size: 24px;&quot;&gt;ENCUESTA&lt;/font&gt;" style="whiteSpace=wrap;html=1;align=center;" parent="1" vertex="1">
          <mxGeometry x="350" y="100" width="160" height="80" as="geometry" />
        </mxCell>
        <mxCell id="RCfMNCTIA7jrwXTFkUlR-2" style="edgeStyle=orthogonalEdgeStyle;rounded=0;orthogonalLoop=1;jettySize=auto;html=1;exitX=0.5;exitY=0;exitDx=0;exitDy=0;entryX=0.5;entryY=1;entryDx=0;entryDy=0;" parent="1" source="kQ22yX0z1VIjIpw_Q_5K-8" target="kQ22yX0z1VIjIpw_Q_5K-1" edge="1">
          <mxGeometry relative="1" as="geometry" />
        </mxCell>
        <mxCell id="kQ22yX0z1VIjIpw_Q_5K-8" value="Vivienda" style="whiteSpace=wrap;html=1;align=center;" parent="1" vertex="1">
          <mxGeometry x="370" y="255" width="120" height="40" as="geometry" />
        </mxCell>
        <mxCell id="yifIly_M_i_Lslrt3uDn-15" style="edgeStyle=orthogonalEdgeStyle;rounded=0;orthogonalLoop=1;jettySize=auto;html=1;exitX=0;exitY=0.5;exitDx=0;exitDy=0;" edge="1" parent="1" source="kQ22yX0z1VIjIpw_Q_5K-11" target="yifIly_M_i_Lslrt3uDn-14">
          <mxGeometry relative="1" as="geometry" />
        </mxCell>
        <mxCell id="kQ22yX0z1VIjIpw_Q_5K-11" value="Hogar" style="whiteSpace=wrap;html=1;align=center;" parent="1" vertex="1">
          <mxGeometry x="370" y="-35" width="120" height="40" as="geometry" />
        </mxCell>
        <mxCell id="ZopcdUyIjLMQ4f1iyohO-8" value="" style="edgeStyle=orthogonalEdgeStyle;rounded=0;orthogonalLoop=1;jettySize=auto;html=1;" parent="1" target="kQ22yX0z1VIjIpw_Q_5K-1" edge="1">
          <mxGeometry relative="1" as="geometry">
            <mxPoint x="550" y="140" as="sourcePoint" />
          </mxGeometry>
        </mxCell>
        <mxCell id="kQ22yX0z1VIjIpw_Q_5K-123" style="edgeStyle=orthogonalEdgeStyle;rounded=0;orthogonalLoop=1;jettySize=auto;html=1;exitX=1;exitY=0.5;exitDx=0;exitDy=0;entryX=0;entryY=0.5;entryDx=0;entryDy=0;" parent="1" source="kQ22yX0z1VIjIpw_Q_5K-14" target="kQ22yX0z1VIjIpw_Q_5K-1" edge="1">
          <mxGeometry relative="1" as="geometry" />
        </mxCell>
        <mxCell id="kQ22yX0z1VIjIpw_Q_5K-14" value="Conglomerado" style="ellipse;whiteSpace=wrap;html=1;align=center;" parent="1" vertex="1">
          <mxGeometry x="200" y="37.5" width="100" height="40" as="geometry" />
        </mxCell>
        <mxCell id="kQ22yX0z1VIjIpw_Q_5K-121" style="edgeStyle=orthogonalEdgeStyle;rounded=0;orthogonalLoop=1;jettySize=auto;html=1;exitX=1;exitY=0.5;exitDx=0;exitDy=0;entryX=0;entryY=0.5;entryDx=0;entryDy=0;" parent="1" source="kQ22yX0z1VIjIpw_Q_5K-16" target="kQ22yX0z1VIjIpw_Q_5K-1" edge="1">
          <mxGeometry relative="1" as="geometry" />
        </mxCell>
        <mxCell id="kQ22yX0z1VIjIpw_Q_5K-16" value="Periodo&lt;br&gt;" style="ellipse;whiteSpace=wrap;html=1;align=center;" parent="1" vertex="1">
          <mxGeometry x="200" y="97.5" width="100" height="40" as="geometry" />
        </mxCell>
        <mxCell id="kQ22yX0z1VIjIpw_Q_5K-118" style="edgeStyle=orthogonalEdgeStyle;rounded=0;orthogonalLoop=1;jettySize=auto;html=1;exitX=1;exitY=0.5;exitDx=0;exitDy=0;entryX=0;entryY=0.5;entryDx=0;entryDy=0;" parent="1" source="kQ22yX0z1VIjIpw_Q_5K-19" target="kQ22yX0z1VIjIpw_Q_5K-1" edge="1">
          <mxGeometry relative="1" as="geometry" />
        </mxCell>
        <mxCell id="kQ22yX0z1VIjIpw_Q_5K-19" value="UPM" style="ellipse;whiteSpace=wrap;html=1;align=center;" parent="1" vertex="1">
          <mxGeometry x="200" y="147.5" width="100" height="40" as="geometry" />
        </mxCell>
        <mxCell id="kQ22yX0z1VIjIpw_Q_5K-24" value="Acceso Principal" style="whiteSpace=wrap;html=1;align=center;" parent="1" vertex="1">
          <mxGeometry x="150" y="734" width="100" height="40" as="geometry" />
        </mxCell>
        <mxCell id="kQ22yX0z1VIjIpw_Q_5K-177" style="edgeStyle=orthogonalEdgeStyle;rounded=0;orthogonalLoop=1;jettySize=auto;html=1;exitX=0.5;exitY=0;exitDx=0;exitDy=0;entryX=1;entryY=0.5;entryDx=0;entryDy=0;" parent="1" source="kQ22yX0z1VIjIpw_Q_5K-26" target="kQ22yX0z1VIjIpw_Q_5K-8" edge="1">
          <mxGeometry relative="1" as="geometry">
            <mxPoint x="1420" y="540" as="sourcePoint" />
            <mxPoint x="520" y="330" as="targetPoint" />
            <Array as="points">
              <mxPoint x="1420" y="275" />
            </Array>
          </mxGeometry>
        </mxCell>
        <mxCell id="kQ22yX0z1VIjIpw_Q_5K-26" value="&lt;u&gt;Id_Vivienda&lt;/u&gt;" style="ellipse;whiteSpace=wrap;html=1;align=center;" parent="1" vertex="1">
          <mxGeometry x="1381" y="344" width="100" height="40" as="geometry" />
        </mxCell>
        <mxCell id="kQ22yX0z1VIjIpw_Q_5K-28" value="Tipo_Vivienda" style="whiteSpace=wrap;html=1;align=center;" parent="1" vertex="1">
          <mxGeometry x="-20" y="714" width="120" height="40" as="geometry" />
        </mxCell>
        <mxCell id="kQ22yX0z1VIjIpw_Q_5K-29" value="Material_Techo" style="whiteSpace=wrap;html=1;align=center;" parent="1" vertex="1">
          <mxGeometry x="260" y="734" width="120" height="40" as="geometry" />
        </mxCell>
        <mxCell id="kQ22yX0z1VIjIpw_Q_5K-30" value="Estado_Techo" style="whiteSpace=wrap;html=1;align=center;" parent="1" vertex="1">
          <mxGeometry x="395" y="734" width="90" height="40" as="geometry" />
        </mxCell>
        <mxCell id="kQ22yX0z1VIjIpw_Q_5K-31" value="Material_Piso" style="whiteSpace=wrap;html=1;align=center;" parent="1" vertex="1">
          <mxGeometry x="530" y="734" width="100" height="40" as="geometry" />
        </mxCell>
        <mxCell id="kQ22yX0z1VIjIpw_Q_5K-32" value="Estado_Piso" style="whiteSpace=wrap;html=1;align=center;" parent="1" vertex="1">
          <mxGeometry x="645" y="734" width="90" height="40" as="geometry" />
        </mxCell>
        <mxCell id="kQ22yX0z1VIjIpw_Q_5K-33" value="Material_Paredes" style="whiteSpace=wrap;html=1;align=center;" parent="1" vertex="1">
          <mxGeometry x="820" y="684" width="120" height="40" as="geometry" />
        </mxCell>
        <mxCell id="kQ22yX0z1VIjIpw_Q_5K-34" value="Estado_Paredes" style="whiteSpace=wrap;html=1;align=center;" parent="1" vertex="1">
          <mxGeometry x="910" y="624" width="120" height="40" as="geometry" />
        </mxCell>
        <mxCell id="kQ22yX0z1VIjIpw_Q_5K-322" style="edgeStyle=orthogonalEdgeStyle;rounded=0;orthogonalLoop=1;jettySize=auto;html=1;exitX=0.5;exitY=0;exitDx=0;exitDy=0;entryX=1;entryY=0.5;entryDx=0;entryDy=0;" parent="1" source="kQ22yX0z1VIjIpw_Q_5K-36" target="kQ22yX0z1VIjIpw_Q_5K-8" edge="1">
          <mxGeometry relative="1" as="geometry" />
        </mxCell>
        <mxCell id="kQ22yX0z1VIjIpw_Q_5K-36" value="Numero_Dormitorios" style="ellipse;whiteSpace=wrap;html=1;align=center;" parent="1" vertex="1">
          <mxGeometry x="1430" y="295" width="120" height="40" as="geometry" />
        </mxCell>
        <mxCell id="kQ22yX0z1VIjIpw_Q_5K-184" style="edgeStyle=orthogonalEdgeStyle;rounded=0;orthogonalLoop=1;jettySize=auto;html=1;exitX=0.5;exitY=0;exitDx=0;exitDy=0;entryX=1;entryY=0.5;entryDx=0;entryDy=0;" parent="1" source="kQ22yX0z1VIjIpw_Q_5K-37" target="kQ22yX0z1VIjIpw_Q_5K-8" edge="1">
          <mxGeometry relative="1" as="geometry" />
        </mxCell>
        <mxCell id="kQ22yX0z1VIjIpw_Q_5K-37" value="Numero_CuartosN" style="ellipse;whiteSpace=wrap;html=1;align=center;" parent="1" vertex="1">
          <mxGeometry x="1570" y="305" width="110" height="40" as="geometry" />
        </mxCell>
        <mxCell id="kQ22yX0z1VIjIpw_Q_5K-323" style="edgeStyle=orthogonalEdgeStyle;rounded=0;orthogonalLoop=1;jettySize=auto;html=1;exitX=0.5;exitY=0;exitDx=0;exitDy=0;entryX=1;entryY=0.5;entryDx=0;entryDy=0;" parent="1" source="kQ22yX0z1VIjIpw_Q_5K-39" target="kQ22yX0z1VIjIpw_Q_5K-8" edge="1">
          <mxGeometry relative="1" as="geometry" />
        </mxCell>
        <mxCell id="kQ22yX0z1VIjIpw_Q_5K-39" value="Numero_Cuartos" style="ellipse;whiteSpace=wrap;html=1;align=center;" parent="1" vertex="1">
          <mxGeometry x="1510" y="345" width="100" height="40" as="geometry" />
        </mxCell>
        <mxCell id="kQ22yX0z1VIjIpw_Q_5K-182" style="edgeStyle=orthogonalEdgeStyle;rounded=0;orthogonalLoop=1;jettySize=auto;html=1;exitX=0.5;exitY=0;exitDx=0;exitDy=0;entryX=1;entryY=0.5;entryDx=0;entryDy=0;" parent="1" source="kQ22yX0z1VIjIpw_Q_5K-40" target="kQ22yX0z1VIjIpw_Q_5K-8" edge="1">
          <mxGeometry relative="1" as="geometry" />
        </mxCell>
        <mxCell id="kQ22yX0z1VIjIpw_Q_5K-40" value="Cuarto_Cocina" style="ellipse;whiteSpace=wrap;html=1;align=center;" parent="1" vertex="1">
          <mxGeometry x="1281" y="334" width="100" height="40" as="geometry" />
        </mxCell>
        <mxCell id="kQ22yX0z1VIjIpw_Q_5K-41" value="Material_Cocina" style="whiteSpace=wrap;html=1;align=center;" parent="1" vertex="1">
          <mxGeometry x="-140" y="654" width="120" height="40" as="geometry" />
        </mxCell>
        <mxCell id="kQ22yX0z1VIjIpw_Q_5K-42" value="Tipo_ServicioHigienico" style="whiteSpace=wrap;html=1;align=center;" parent="1" vertex="1">
          <mxGeometry x="-250" y="604" width="130" height="40" as="geometry" />
        </mxCell>
        <mxCell id="kQ22yX0z1VIjIpw_Q_5K-43" value="Tipo_ServicioHigienico_No" style="whiteSpace=wrap;html=1;align=center;" parent="1" vertex="1">
          <mxGeometry x="-350" y="554" width="150" height="40" as="geometry" />
        </mxCell>
        <mxCell id="kQ22yX0z1VIjIpw_Q_5K-117" style="edgeStyle=orthogonalEdgeStyle;rounded=0;orthogonalLoop=1;jettySize=auto;html=1;exitX=1;exitY=0.5;exitDx=0;exitDy=0;entryX=0;entryY=0.5;entryDx=0;entryDy=0;" parent="1" source="kQ22yX0z1VIjIpw_Q_5K-45" target="kQ22yX0z1VIjIpw_Q_5K-1" edge="1">
          <mxGeometry relative="1" as="geometry" />
        </mxCell>
        <mxCell id="kQ22yX0z1VIjIpw_Q_5K-45" value="Area" style="ellipse;whiteSpace=wrap;html=1;align=center;" parent="1" vertex="1">
          <mxGeometry x="200" y="202.5" width="100" height="40" as="geometry" />
        </mxCell>
        <mxCell id="kQ22yX0z1VIjIpw_Q_5K-46" value="TipoInstalacion_Sanitaria" style="whiteSpace=wrap;html=1;align=center;" parent="1" vertex="1">
          <mxGeometry x="960" y="564" width="150" height="40" as="geometry" />
        </mxCell>
        <mxCell id="kQ22yX0z1VIjIpw_Q_5K-47" value="Obtiene_Agua" style="whiteSpace=wrap;html=1;align=center;" parent="1" vertex="1">
          <mxGeometry x="1085" y="464" width="150" height="40" as="geometry" />
        </mxCell>
        <mxCell id="kQ22yX0z1VIjIpw_Q_5K-53" value="Agua_RecibeV" style="whiteSpace=wrap;html=1;align=center;" parent="1" vertex="1">
          <mxGeometry x="1030" y="514" width="150" height="40" as="geometry" />
        </mxCell>
        <mxCell id="A3FIy8zc4xwhxK1xI06p-5" value="" style="edgeStyle=orthogonalEdgeStyle;rounded=0;orthogonalLoop=1;jettySize=auto;html=1;" parent="1" source="kQ22yX0z1VIjIpw_Q_5K-54" target="kQ22yX0z1VIjIpw_Q_5K-154" edge="1">
          <mxGeometry relative="1" as="geometry" />
        </mxCell>
        <mxCell id="kQ22yX0z1VIjIpw_Q_5K-54" value="Servicio_Ducha" style="whiteSpace=wrap;html=1;align=center;" parent="1" vertex="1">
          <mxGeometry x="370" y="-430" width="120" height="40" as="geometry" />
        </mxCell>
        <mxCell id="A3FIy8zc4xwhxK1xI06p-6" value="" style="edgeStyle=orthogonalEdgeStyle;rounded=0;orthogonalLoop=1;jettySize=auto;html=1;" parent="1" source="kQ22yX0z1VIjIpw_Q_5K-55" target="kQ22yX0z1VIjIpw_Q_5K-152" edge="1">
          <mxGeometry relative="1" as="geometry" />
        </mxCell>
        <mxCell id="kQ22yX0z1VIjIpw_Q_5K-55" value="Tipo_Alumbrado" style="whiteSpace=wrap;html=1;align=center;" parent="1" vertex="1">
          <mxGeometry x="220" y="-430" width="120" height="40" as="geometry" />
        </mxCell>
        <mxCell id="kQ22yX0z1VIjIpw_Q_5K-56" value="Eliminar_Basura" style="whiteSpace=wrap;html=1;align=center;" parent="1" vertex="1">
          <mxGeometry x="-403" y="494" width="150" height="40" as="geometry" />
        </mxCell>
        <mxCell id="A3FIy8zc4xwhxK1xI06p-1" style="edgeStyle=orthogonalEdgeStyle;rounded=0;orthogonalLoop=1;jettySize=auto;html=1;exitX=0.5;exitY=1;exitDx=0;exitDy=0;entryX=0.5;entryY=0;entryDx=0;entryDy=0;" parent="1" source="kQ22yX0z1VIjIpw_Q_5K-57" target="kQ22yX0z1VIjIpw_Q_5K-157" edge="1">
          <mxGeometry relative="1" as="geometry" />
        </mxCell>
        <mxCell id="kQ22yX0z1VIjIpw_Q_5K-57" value="TenenciaVivienda" style="whiteSpace=wrap;html=1;align=center;" parent="1" vertex="1">
          <mxGeometry x="520" y="-430" width="120" height="40" as="geometry" />
        </mxCell>
        <mxCell id="kQ22yX0z1VIjIpw_Q_5K-183" style="edgeStyle=orthogonalEdgeStyle;rounded=0;orthogonalLoop=1;jettySize=auto;html=1;exitX=0.5;exitY=0;exitDx=0;exitDy=0;entryX=1;entryY=0.5;entryDx=0;entryDy=0;" parent="1" source="kQ22yX0z1VIjIpw_Q_5K-59" target="kQ22yX0z1VIjIpw_Q_5K-8" edge="1">
          <mxGeometry relative="1" as="geometry" />
        </mxCell>
        <mxCell id="kQ22yX0z1VIjIpw_Q_5K-59" value="Junta_Agua" style="ellipse;whiteSpace=wrap;html=1;align=center;" parent="1" vertex="1">
          <mxGeometry x="1202" y="304" width="100" height="40" as="geometry" />
        </mxCell>
        <mxCell id="yifIly_M_i_Lslrt3uDn-12" style="edgeStyle=orthogonalEdgeStyle;rounded=0;orthogonalLoop=1;jettySize=auto;html=1;exitX=1;exitY=0.5;exitDx=0;exitDy=0;entryX=0;entryY=0;entryDx=0;entryDy=0;" edge="1" parent="1" source="kQ22yX0z1VIjIpw_Q_5K-61" target="kQ22yX0z1VIjIpw_Q_5K-11">
          <mxGeometry relative="1" as="geometry" />
        </mxCell>
        <mxCell id="kQ22yX0z1VIjIpw_Q_5K-61" value="Valor_Paga" style="ellipse;whiteSpace=wrap;html=1;align=center;" parent="1" vertex="1">
          <mxGeometry x="-80" y="-125" width="100" height="40" as="geometry" />
        </mxCell>
        <mxCell id="yifIly_M_i_Lslrt3uDn-11" style="edgeStyle=orthogonalEdgeStyle;rounded=0;orthogonalLoop=1;jettySize=auto;html=1;exitX=1;exitY=0.5;exitDx=0;exitDy=0;entryX=0;entryY=0;entryDx=0;entryDy=0;" edge="1" parent="1" source="kQ22yX0z1VIjIpw_Q_5K-62" target="kQ22yX0z1VIjIpw_Q_5K-11">
          <mxGeometry relative="1" as="geometry" />
        </mxCell>
        <mxCell id="kQ22yX0z1VIjIpw_Q_5K-62" value="ValorIncluido_Agua" style="ellipse;whiteSpace=wrap;html=1;align=center;" parent="1" vertex="1">
          <mxGeometry x="-10" y="-175" width="100" height="40" as="geometry" />
        </mxCell>
        <mxCell id="yifIly_M_i_Lslrt3uDn-10" style="edgeStyle=orthogonalEdgeStyle;rounded=0;orthogonalLoop=1;jettySize=auto;html=1;exitX=1;exitY=0.5;exitDx=0;exitDy=0;entryX=0;entryY=0;entryDx=0;entryDy=0;" edge="1" parent="1" source="kQ22yX0z1VIjIpw_Q_5K-63" target="kQ22yX0z1VIjIpw_Q_5K-11">
          <mxGeometry relative="1" as="geometry" />
        </mxCell>
        <mxCell id="kQ22yX0z1VIjIpw_Q_5K-63" value="ValorIncluido_Luz" style="ellipse;whiteSpace=wrap;html=1;align=center;" parent="1" vertex="1">
          <mxGeometry x="50" y="-225" width="100" height="40" as="geometry" />
        </mxCell>
        <mxCell id="yifIly_M_i_Lslrt3uDn-3" style="edgeStyle=orthogonalEdgeStyle;rounded=0;orthogonalLoop=1;jettySize=auto;html=1;exitX=0;exitY=0.5;exitDx=0;exitDy=0;entryX=1;entryY=0;entryDx=0;entryDy=0;" edge="1" parent="1" source="kQ22yX0z1VIjIpw_Q_5K-64" target="kQ22yX0z1VIjIpw_Q_5K-11">
          <mxGeometry relative="1" as="geometry">
            <Array as="points">
              <mxPoint x="490" y="-255" />
            </Array>
          </mxGeometry>
        </mxCell>
        <mxCell id="kQ22yX0z1VIjIpw_Q_5K-64" value="Parentesco_Propietario" style="ellipse;whiteSpace=wrap;html=1;align=center;" parent="1" vertex="1">
          <mxGeometry x="620" y="-275" width="150" height="40" as="geometry" />
        </mxCell>
        <mxCell id="yifIly_M_i_Lslrt3uDn-4" style="edgeStyle=orthogonalEdgeStyle;rounded=0;orthogonalLoop=1;jettySize=auto;html=1;exitX=0;exitY=0.5;exitDx=0;exitDy=0;entryX=1;entryY=0;entryDx=0;entryDy=0;" edge="1" parent="1" source="kQ22yX0z1VIjIpw_Q_5K-65" target="kQ22yX0z1VIjIpw_Q_5K-11">
          <mxGeometry relative="1" as="geometry">
            <mxPoint x="510" y="-50" as="targetPoint" />
            <Array as="points">
              <mxPoint x="490" y="-205" />
            </Array>
          </mxGeometry>
        </mxCell>
        <mxCell id="kQ22yX0z1VIjIpw_Q_5K-65" value="Hogar_VehÃ­culos" style="ellipse;whiteSpace=wrap;html=1;align=center;" parent="1" vertex="1">
          <mxGeometry x="680" y="-225" width="100" height="40" as="geometry" />
        </mxCell>
        <mxCell id="yifIly_M_i_Lslrt3uDn-8" style="edgeStyle=orthogonalEdgeStyle;rounded=0;orthogonalLoop=1;jettySize=auto;html=1;exitX=0;exitY=0.5;exitDx=0;exitDy=0;entryX=1;entryY=0;entryDx=0;entryDy=0;" edge="1" parent="1" source="kQ22yX0z1VIjIpw_Q_5K-66" target="kQ22yX0z1VIjIpw_Q_5K-11">
          <mxGeometry relative="1" as="geometry" />
        </mxCell>
        <mxCell id="kQ22yX0z1VIjIpw_Q_5K-66" value="Cuantos_Vehiculos" style="ellipse;whiteSpace=wrap;html=1;align=center;" parent="1" vertex="1">
          <mxGeometry x="730" y="-175" width="100" height="40" as="geometry" />
        </mxCell>
        <mxCell id="yifIly_M_i_Lslrt3uDn-7" style="edgeStyle=orthogonalEdgeStyle;rounded=0;orthogonalLoop=1;jettySize=auto;html=1;exitX=0;exitY=0.5;exitDx=0;exitDy=0;entryX=1;entryY=0;entryDx=0;entryDy=0;" edge="1" parent="1" source="kQ22yX0z1VIjIpw_Q_5K-67" target="kQ22yX0z1VIjIpw_Q_5K-11">
          <mxGeometry relative="1" as="geometry">
            <Array as="points">
              <mxPoint x="490" y="-55" />
            </Array>
          </mxGeometry>
        </mxCell>
        <mxCell id="kQ22yX0z1VIjIpw_Q_5K-67" value="Hogar_Motos" style="ellipse;whiteSpace=wrap;html=1;align=center;" parent="1" vertex="1">
          <mxGeometry x="830" y="-75" width="100" height="40" as="geometry" />
        </mxCell>
        <mxCell id="yifIly_M_i_Lslrt3uDn-6" style="edgeStyle=orthogonalEdgeStyle;rounded=0;orthogonalLoop=1;jettySize=auto;html=1;exitX=0;exitY=0.5;exitDx=0;exitDy=0;entryX=1;entryY=0;entryDx=0;entryDy=0;" edge="1" parent="1" source="kQ22yX0z1VIjIpw_Q_5K-68" target="kQ22yX0z1VIjIpw_Q_5K-11">
          <mxGeometry relative="1" as="geometry">
            <mxPoint x="510" y="-50" as="targetPoint" />
          </mxGeometry>
        </mxCell>
        <mxCell id="kQ22yX0z1VIjIpw_Q_5K-68" value="Cuantos_Motos" style="ellipse;whiteSpace=wrap;html=1;align=center;" parent="1" vertex="1">
          <mxGeometry x="780" y="-125" width="100" height="40" as="geometry" />
        </mxCell>
        <mxCell id="kQ22yX0z1VIjIpw_Q_5K-108" style="edgeStyle=orthogonalEdgeStyle;rounded=0;orthogonalLoop=1;jettySize=auto;html=1;exitX=0.5;exitY=0;exitDx=0;exitDy=0;entryX=0.5;entryY=1;entryDx=0;entryDy=0;" parent="1" source="kQ22yX0z1VIjIpw_Q_5K-79" target="kQ22yX0z1VIjIpw_Q_5K-8" edge="1">
          <mxGeometry relative="1" as="geometry">
            <Array as="points">
              <mxPoint x="570" y="560" />
              <mxPoint x="430" y="560" />
            </Array>
          </mxGeometry>
        </mxCell>
        <mxCell id="kQ22yX0z1VIjIpw_Q_5K-166" style="edgeStyle=orthogonalEdgeStyle;rounded=0;orthogonalLoop=1;jettySize=auto;html=1;exitX=0.5;exitY=1;exitDx=0;exitDy=0;entryX=0.5;entryY=0;entryDx=0;entryDy=0;" parent="1" source="kQ22yX0z1VIjIpw_Q_5K-79" target="kQ22yX0z1VIjIpw_Q_5K-31" edge="1">
          <mxGeometry relative="1" as="geometry" />
        </mxCell>
        <mxCell id="kQ22yX0z1VIjIpw_Q_5K-79" value="1:1" style="shape=rhombus;perimeter=rhombusPerimeter;whiteSpace=wrap;html=1;align=center;" parent="1" vertex="1">
          <mxGeometry x="540" y="614" width="80" height="80" as="geometry" />
        </mxCell>
        <mxCell id="kQ22yX0z1VIjIpw_Q_5K-106" style="edgeStyle=orthogonalEdgeStyle;rounded=0;orthogonalLoop=1;jettySize=auto;html=1;exitX=0.5;exitY=0;exitDx=0;exitDy=0;entryX=0.5;entryY=1;entryDx=0;entryDy=0;" parent="1" source="kQ22yX0z1VIjIpw_Q_5K-80" target="kQ22yX0z1VIjIpw_Q_5K-8" edge="1">
          <mxGeometry relative="1" as="geometry">
            <Array as="points">
              <mxPoint x="310" y="560" />
              <mxPoint x="430" y="560" />
            </Array>
          </mxGeometry>
        </mxCell>
        <mxCell id="kQ22yX0z1VIjIpw_Q_5K-170" style="edgeStyle=orthogonalEdgeStyle;rounded=0;orthogonalLoop=1;jettySize=auto;html=1;exitX=0.5;exitY=1;exitDx=0;exitDy=0;entryX=0.5;entryY=0;entryDx=0;entryDy=0;" parent="1" source="kQ22yX0z1VIjIpw_Q_5K-80" target="kQ22yX0z1VIjIpw_Q_5K-29" edge="1">
          <mxGeometry relative="1" as="geometry" />
        </mxCell>
        <mxCell id="kQ22yX0z1VIjIpw_Q_5K-80" value="1:1" style="shape=rhombus;perimeter=rhombusPerimeter;whiteSpace=wrap;html=1;align=center;" parent="1" vertex="1">
          <mxGeometry x="280" y="624" width="80" height="80" as="geometry" />
        </mxCell>
        <mxCell id="kQ22yX0z1VIjIpw_Q_5K-165" style="edgeStyle=orthogonalEdgeStyle;rounded=0;orthogonalLoop=1;jettySize=auto;html=1;exitX=0.5;exitY=1;exitDx=0;exitDy=0;entryX=0.5;entryY=0;entryDx=0;entryDy=0;" parent="1" source="kQ22yX0z1VIjIpw_Q_5K-81" target="kQ22yX0z1VIjIpw_Q_5K-30" edge="1">
          <mxGeometry relative="1" as="geometry" />
        </mxCell>
        <mxCell id="kQ22yX0z1VIjIpw_Q_5K-325" style="edgeStyle=orthogonalEdgeStyle;rounded=0;orthogonalLoop=1;jettySize=auto;html=1;exitX=0.5;exitY=0;exitDx=0;exitDy=0;entryX=0.5;entryY=1;entryDx=0;entryDy=0;" parent="1" source="kQ22yX0z1VIjIpw_Q_5K-81" target="kQ22yX0z1VIjIpw_Q_5K-8" edge="1">
          <mxGeometry relative="1" as="geometry">
            <Array as="points">
              <mxPoint x="430" y="624" />
            </Array>
          </mxGeometry>
        </mxCell>
        <mxCell id="kQ22yX0z1VIjIpw_Q_5K-81" value="1:1" style="shape=rhombus;perimeter=rhombusPerimeter;whiteSpace=wrap;html=1;align=center;" parent="1" vertex="1">
          <mxGeometry x="400" y="624" width="80" height="80" as="geometry" />
        </mxCell>
        <mxCell id="kQ22yX0z1VIjIpw_Q_5K-105" style="edgeStyle=orthogonalEdgeStyle;rounded=0;orthogonalLoop=1;jettySize=auto;html=1;exitX=0.5;exitY=0;exitDx=0;exitDy=0;entryX=0.5;entryY=1;entryDx=0;entryDy=0;" parent="1" source="kQ22yX0z1VIjIpw_Q_5K-82" target="kQ22yX0z1VIjIpw_Q_5K-8" edge="1">
          <mxGeometry relative="1" as="geometry">
            <Array as="points">
              <mxPoint x="190" y="510" />
              <mxPoint x="430" y="510" />
            </Array>
          </mxGeometry>
        </mxCell>
        <mxCell id="kQ22yX0z1VIjIpw_Q_5K-171" style="edgeStyle=orthogonalEdgeStyle;rounded=0;orthogonalLoop=1;jettySize=auto;html=1;exitX=0.5;exitY=1;exitDx=0;exitDy=0;entryX=0.5;entryY=0;entryDx=0;entryDy=0;" parent="1" source="kQ22yX0z1VIjIpw_Q_5K-82" target="kQ22yX0z1VIjIpw_Q_5K-24" edge="1">
          <mxGeometry relative="1" as="geometry" />
        </mxCell>
        <mxCell id="kQ22yX0z1VIjIpw_Q_5K-82" value="1:1" style="shape=rhombus;perimeter=rhombusPerimeter;whiteSpace=wrap;html=1;align=center;" parent="1" vertex="1">
          <mxGeometry x="160" y="624" width="80" height="80" as="geometry" />
        </mxCell>
        <mxCell id="kQ22yX0z1VIjIpw_Q_5K-104" style="edgeStyle=orthogonalEdgeStyle;rounded=0;orthogonalLoop=1;jettySize=auto;html=1;exitX=0.5;exitY=0;exitDx=0;exitDy=0;entryX=0.5;entryY=1;entryDx=0;entryDy=0;" parent="1" source="kQ22yX0z1VIjIpw_Q_5K-83" target="kQ22yX0z1VIjIpw_Q_5K-8" edge="1">
          <mxGeometry relative="1" as="geometry">
            <Array as="points">
              <mxPoint x="110" y="510" />
              <mxPoint x="430" y="510" />
            </Array>
          </mxGeometry>
        </mxCell>
        <mxCell id="kQ22yX0z1VIjIpw_Q_5K-172" style="edgeStyle=orthogonalEdgeStyle;rounded=0;orthogonalLoop=1;jettySize=auto;html=1;exitX=0.5;exitY=1;exitDx=0;exitDy=0;entryX=1;entryY=0.5;entryDx=0;entryDy=0;" parent="1" source="kQ22yX0z1VIjIpw_Q_5K-83" target="kQ22yX0z1VIjIpw_Q_5K-28" edge="1">
          <mxGeometry relative="1" as="geometry" />
        </mxCell>
        <mxCell id="kQ22yX0z1VIjIpw_Q_5K-83" value="1:1" style="shape=rhombus;perimeter=rhombusPerimeter;whiteSpace=wrap;html=1;align=center;" parent="1" vertex="1">
          <mxGeometry x="80" y="604" width="80" height="80" as="geometry" />
        </mxCell>
        <mxCell id="kQ22yX0z1VIjIpw_Q_5K-102" style="edgeStyle=orthogonalEdgeStyle;rounded=0;orthogonalLoop=1;jettySize=auto;html=1;exitX=0.5;exitY=0;exitDx=0;exitDy=0;entryX=0.5;entryY=1;entryDx=0;entryDy=0;" parent="1" source="kQ22yX0z1VIjIpw_Q_5K-84" target="kQ22yX0z1VIjIpw_Q_5K-8" edge="1">
          <mxGeometry relative="1" as="geometry">
            <Array as="points">
              <mxPoint x="-90" y="480" />
              <mxPoint x="430" y="480" />
            </Array>
          </mxGeometry>
        </mxCell>
        <mxCell id="kQ22yX0z1VIjIpw_Q_5K-174" style="edgeStyle=orthogonalEdgeStyle;rounded=0;orthogonalLoop=1;jettySize=auto;html=1;exitX=0.5;exitY=1;exitDx=0;exitDy=0;entryX=1;entryY=0.5;entryDx=0;entryDy=0;" parent="1" source="kQ22yX0z1VIjIpw_Q_5K-84" target="kQ22yX0z1VIjIpw_Q_5K-42" edge="1">
          <mxGeometry relative="1" as="geometry" />
        </mxCell>
        <mxCell id="kQ22yX0z1VIjIpw_Q_5K-84" value="1:1" style="shape=rhombus;perimeter=rhombusPerimeter;whiteSpace=wrap;html=1;align=center;" parent="1" vertex="1">
          <mxGeometry x="-120" y="494" width="80" height="80" as="geometry" />
        </mxCell>
        <mxCell id="kQ22yX0z1VIjIpw_Q_5K-103" style="edgeStyle=orthogonalEdgeStyle;rounded=0;orthogonalLoop=1;jettySize=auto;html=1;exitX=0.5;exitY=0;exitDx=0;exitDy=0;entryX=0.5;entryY=1;entryDx=0;entryDy=0;" parent="1" source="kQ22yX0z1VIjIpw_Q_5K-85" target="kQ22yX0z1VIjIpw_Q_5K-8" edge="1">
          <mxGeometry relative="1" as="geometry">
            <Array as="points">
              <mxPoint x="10" y="480" />
              <mxPoint x="430" y="480" />
            </Array>
          </mxGeometry>
        </mxCell>
        <mxCell id="kQ22yX0z1VIjIpw_Q_5K-173" style="edgeStyle=orthogonalEdgeStyle;rounded=0;orthogonalLoop=1;jettySize=auto;html=1;exitX=0.5;exitY=1;exitDx=0;exitDy=0;entryX=1;entryY=0.5;entryDx=0;entryDy=0;" parent="1" source="kQ22yX0z1VIjIpw_Q_5K-85" target="kQ22yX0z1VIjIpw_Q_5K-41" edge="1">
          <mxGeometry relative="1" as="geometry" />
        </mxCell>
        <mxCell id="kQ22yX0z1VIjIpw_Q_5K-85" value="1:1" style="shape=rhombus;perimeter=rhombusPerimeter;whiteSpace=wrap;html=1;align=center;" parent="1" vertex="1">
          <mxGeometry x="-20" y="574" width="80" height="80" as="geometry" />
        </mxCell>
        <mxCell id="kQ22yX0z1VIjIpw_Q_5K-101" style="edgeStyle=orthogonalEdgeStyle;rounded=0;orthogonalLoop=1;jettySize=auto;html=1;exitX=0.5;exitY=0;exitDx=0;exitDy=0;entryX=0.5;entryY=1;entryDx=0;entryDy=0;" parent="1" source="kQ22yX0z1VIjIpw_Q_5K-86" target="kQ22yX0z1VIjIpw_Q_5K-8" edge="1">
          <mxGeometry relative="1" as="geometry">
            <Array as="points">
              <mxPoint x="-160" y="440" />
              <mxPoint x="430" y="440" />
            </Array>
          </mxGeometry>
        </mxCell>
        <mxCell id="kQ22yX0z1VIjIpw_Q_5K-175" style="edgeStyle=orthogonalEdgeStyle;rounded=0;orthogonalLoop=1;jettySize=auto;html=1;exitX=0.5;exitY=1;exitDx=0;exitDy=0;entryX=1;entryY=0.5;entryDx=0;entryDy=0;" parent="1" source="kQ22yX0z1VIjIpw_Q_5K-86" target="kQ22yX0z1VIjIpw_Q_5K-43" edge="1">
          <mxGeometry relative="1" as="geometry" />
        </mxCell>
        <mxCell id="kQ22yX0z1VIjIpw_Q_5K-86" value="1:1" style="shape=rhombus;perimeter=rhombusPerimeter;whiteSpace=wrap;html=1;align=center;" parent="1" vertex="1">
          <mxGeometry x="-190" y="434" width="80" height="80" as="geometry" />
        </mxCell>
        <mxCell id="kQ22yX0z1VIjIpw_Q_5K-113" style="edgeStyle=orthogonalEdgeStyle;rounded=0;orthogonalLoop=1;jettySize=auto;html=1;exitX=0.5;exitY=0;exitDx=0;exitDy=0;entryX=0.5;entryY=1;entryDx=0;entryDy=0;" parent="1" source="kQ22yX0z1VIjIpw_Q_5K-87" target="kQ22yX0z1VIjIpw_Q_5K-8" edge="1">
          <mxGeometry relative="1" as="geometry">
            <Array as="points">
              <mxPoint x="850" y="480" />
              <mxPoint x="430" y="480" />
            </Array>
          </mxGeometry>
        </mxCell>
        <mxCell id="kQ22yX0z1VIjIpw_Q_5K-163" style="edgeStyle=orthogonalEdgeStyle;rounded=0;orthogonalLoop=1;jettySize=auto;html=1;exitX=0.5;exitY=1;exitDx=0;exitDy=0;entryX=0;entryY=0.5;entryDx=0;entryDy=0;" parent="1" source="kQ22yX0z1VIjIpw_Q_5K-87" target="kQ22yX0z1VIjIpw_Q_5K-34" edge="1">
          <mxGeometry relative="1" as="geometry" />
        </mxCell>
        <mxCell id="kQ22yX0z1VIjIpw_Q_5K-87" value="1:1" style="shape=rhombus;perimeter=rhombusPerimeter;whiteSpace=wrap;html=1;align=center;" parent="1" vertex="1">
          <mxGeometry x="820" y="534" width="80" height="80" as="geometry" />
        </mxCell>
        <mxCell id="kQ22yX0z1VIjIpw_Q_5K-111" style="edgeStyle=orthogonalEdgeStyle;rounded=0;orthogonalLoop=1;jettySize=auto;html=1;exitX=0.5;exitY=0;exitDx=0;exitDy=0;entryX=0.5;entryY=1;entryDx=0;entryDy=0;" parent="1" source="kQ22yX0z1VIjIpw_Q_5K-88" target="kQ22yX0z1VIjIpw_Q_5K-8" edge="1">
          <mxGeometry relative="1" as="geometry">
            <Array as="points">
              <mxPoint x="680" y="560" />
              <mxPoint x="430" y="560" />
            </Array>
          </mxGeometry>
        </mxCell>
        <mxCell id="kQ22yX0z1VIjIpw_Q_5K-168" style="edgeStyle=orthogonalEdgeStyle;rounded=0;orthogonalLoop=1;jettySize=auto;html=1;exitX=0.5;exitY=1;exitDx=0;exitDy=0;entryX=0.5;entryY=0;entryDx=0;entryDy=0;" parent="1" source="kQ22yX0z1VIjIpw_Q_5K-88" target="kQ22yX0z1VIjIpw_Q_5K-32" edge="1">
          <mxGeometry relative="1" as="geometry" />
        </mxCell>
        <mxCell id="kQ22yX0z1VIjIpw_Q_5K-88" value="1:1" style="shape=rhombus;perimeter=rhombusPerimeter;whiteSpace=wrap;html=1;align=center;" parent="1" vertex="1">
          <mxGeometry x="650" y="614" width="80" height="80" as="geometry" />
        </mxCell>
        <mxCell id="kQ22yX0z1VIjIpw_Q_5K-112" style="edgeStyle=orthogonalEdgeStyle;rounded=0;orthogonalLoop=1;jettySize=auto;html=1;exitX=0.5;exitY=0;exitDx=0;exitDy=0;entryX=0.5;entryY=1;entryDx=0;entryDy=0;" parent="1" source="kQ22yX0z1VIjIpw_Q_5K-89" target="kQ22yX0z1VIjIpw_Q_5K-8" edge="1">
          <mxGeometry relative="1" as="geometry">
            <Array as="points">
              <mxPoint x="770" y="510" />
              <mxPoint x="430" y="510" />
            </Array>
          </mxGeometry>
        </mxCell>
        <mxCell id="kQ22yX0z1VIjIpw_Q_5K-164" style="edgeStyle=orthogonalEdgeStyle;rounded=0;orthogonalLoop=1;jettySize=auto;html=1;exitX=0.5;exitY=1;exitDx=0;exitDy=0;entryX=0;entryY=0.5;entryDx=0;entryDy=0;" parent="1" source="kQ22yX0z1VIjIpw_Q_5K-89" target="kQ22yX0z1VIjIpw_Q_5K-33" edge="1">
          <mxGeometry relative="1" as="geometry" />
        </mxCell>
        <mxCell id="kQ22yX0z1VIjIpw_Q_5K-89" value="1:1" style="shape=rhombus;perimeter=rhombusPerimeter;whiteSpace=wrap;html=1;align=center;" parent="1" vertex="1">
          <mxGeometry x="740" y="584" width="80" height="80" as="geometry" />
        </mxCell>
        <mxCell id="kQ22yX0z1VIjIpw_Q_5K-100" style="edgeStyle=orthogonalEdgeStyle;rounded=0;orthogonalLoop=1;jettySize=auto;html=1;exitX=0.5;exitY=0;exitDx=0;exitDy=0;entryX=0.5;entryY=1;entryDx=0;entryDy=0;" parent="1" source="kQ22yX0z1VIjIpw_Q_5K-92" target="kQ22yX0z1VIjIpw_Q_5K-8" edge="1">
          <mxGeometry relative="1" as="geometry">
            <Array as="points">
              <mxPoint x="-230" y="400" />
              <mxPoint x="430" y="400" />
            </Array>
          </mxGeometry>
        </mxCell>
        <mxCell id="kQ22yX0z1VIjIpw_Q_5K-176" style="edgeStyle=orthogonalEdgeStyle;rounded=0;orthogonalLoop=1;jettySize=auto;html=1;exitX=0.5;exitY=1;exitDx=0;exitDy=0;entryX=1;entryY=0.5;entryDx=0;entryDy=0;" parent="1" source="kQ22yX0z1VIjIpw_Q_5K-92" target="kQ22yX0z1VIjIpw_Q_5K-56" edge="1">
          <mxGeometry relative="1" as="geometry" />
        </mxCell>
        <mxCell id="kQ22yX0z1VIjIpw_Q_5K-92" value="1:1" style="shape=rhombus;perimeter=rhombusPerimeter;whiteSpace=wrap;html=1;align=center;" parent="1" vertex="1">
          <mxGeometry x="-260" y="394" width="80" height="80" as="geometry" />
        </mxCell>
        <mxCell id="kQ22yX0z1VIjIpw_Q_5K-114" style="edgeStyle=orthogonalEdgeStyle;rounded=0;orthogonalLoop=1;jettySize=auto;html=1;exitX=0.5;exitY=0;exitDx=0;exitDy=0;entryX=0.5;entryY=1;entryDx=0;entryDy=0;" parent="1" source="kQ22yX0z1VIjIpw_Q_5K-93" target="kQ22yX0z1VIjIpw_Q_5K-8" edge="1">
          <mxGeometry relative="1" as="geometry">
            <Array as="points">
              <mxPoint x="930" y="440" />
              <mxPoint x="430" y="440" />
            </Array>
          </mxGeometry>
        </mxCell>
        <mxCell id="kQ22yX0z1VIjIpw_Q_5K-162" style="edgeStyle=orthogonalEdgeStyle;rounded=0;orthogonalLoop=1;jettySize=auto;html=1;exitX=0.5;exitY=1;exitDx=0;exitDy=0;entryX=0;entryY=0.5;entryDx=0;entryDy=0;" parent="1" source="kQ22yX0z1VIjIpw_Q_5K-93" target="kQ22yX0z1VIjIpw_Q_5K-46" edge="1">
          <mxGeometry relative="1" as="geometry" />
        </mxCell>
        <mxCell id="kQ22yX0z1VIjIpw_Q_5K-93" value="1:1" style="shape=rhombus;perimeter=rhombusPerimeter;whiteSpace=wrap;html=1;align=center;" parent="1" vertex="1">
          <mxGeometry x="900" y="464" width="80" height="80" as="geometry" />
        </mxCell>
        <mxCell id="kQ22yX0z1VIjIpw_Q_5K-115" style="edgeStyle=orthogonalEdgeStyle;rounded=0;orthogonalLoop=1;jettySize=auto;html=1;exitX=0.5;exitY=0;exitDx=0;exitDy=0;entryX=0.5;entryY=1;entryDx=0;entryDy=0;" parent="1" source="kQ22yX0z1VIjIpw_Q_5K-94" target="kQ22yX0z1VIjIpw_Q_5K-8" edge="1">
          <mxGeometry relative="1" as="geometry">
            <Array as="points">
              <mxPoint x="995" y="440" />
              <mxPoint x="430" y="440" />
            </Array>
          </mxGeometry>
        </mxCell>
        <mxCell id="kQ22yX0z1VIjIpw_Q_5K-161" style="edgeStyle=orthogonalEdgeStyle;rounded=0;orthogonalLoop=1;jettySize=auto;html=1;exitX=0.5;exitY=1;exitDx=0;exitDy=0;entryX=0;entryY=0.5;entryDx=0;entryDy=0;" parent="1" source="kQ22yX0z1VIjIpw_Q_5K-94" target="kQ22yX0z1VIjIpw_Q_5K-53" edge="1">
          <mxGeometry relative="1" as="geometry" />
        </mxCell>
        <mxCell id="kQ22yX0z1VIjIpw_Q_5K-94" value="1:1" style="shape=rhombus;perimeter=rhombusPerimeter;whiteSpace=wrap;html=1;align=center;" parent="1" vertex="1">
          <mxGeometry x="970" y="424" width="70" height="70" as="geometry" />
        </mxCell>
        <mxCell id="kQ22yX0z1VIjIpw_Q_5K-116" style="edgeStyle=orthogonalEdgeStyle;rounded=0;orthogonalLoop=1;jettySize=auto;html=1;exitX=0.5;exitY=0;exitDx=0;exitDy=0;entryX=0.5;entryY=1;entryDx=0;entryDy=0;" parent="1" source="kQ22yX0z1VIjIpw_Q_5K-95" target="kQ22yX0z1VIjIpw_Q_5K-8" edge="1">
          <mxGeometry relative="1" as="geometry">
            <Array as="points">
              <mxPoint x="1050" y="400" />
              <mxPoint x="430" y="400" />
            </Array>
          </mxGeometry>
        </mxCell>
        <mxCell id="kQ22yX0z1VIjIpw_Q_5K-160" style="edgeStyle=orthogonalEdgeStyle;rounded=0;orthogonalLoop=1;jettySize=auto;html=1;exitX=0.5;exitY=1;exitDx=0;exitDy=0;entryX=0;entryY=0.5;entryDx=0;entryDy=0;" parent="1" source="kQ22yX0z1VIjIpw_Q_5K-95" target="kQ22yX0z1VIjIpw_Q_5K-47" edge="1">
          <mxGeometry relative="1" as="geometry" />
        </mxCell>
        <mxCell id="kQ22yX0z1VIjIpw_Q_5K-95" value="1:1" style="shape=rhombus;perimeter=rhombusPerimeter;whiteSpace=wrap;html=1;align=center;" parent="1" vertex="1">
          <mxGeometry x="1020" y="374" width="80" height="70" as="geometry" />
        </mxCell>
        <mxCell id="RCfMNCTIA7jrwXTFkUlR-13" style="edgeStyle=orthogonalEdgeStyle;rounded=0;orthogonalLoop=1;jettySize=auto;html=1;exitX=0.5;exitY=1;exitDx=0;exitDy=0;entryX=0.25;entryY=0;entryDx=0;entryDy=0;" parent="1" source="kQ22yX0z1VIjIpw_Q_5K-152" target="kQ22yX0z1VIjIpw_Q_5K-11" edge="1">
          <mxGeometry relative="1" as="geometry">
            <Array as="points">
              <mxPoint x="400" y="-290" />
            </Array>
          </mxGeometry>
        </mxCell>
        <mxCell id="kQ22yX0z1VIjIpw_Q_5K-152" value="1:1" style="shape=rhombus;perimeter=rhombusPerimeter;whiteSpace=wrap;html=1;align=center;" parent="1" vertex="1">
          <mxGeometry x="220" y="-360" width="120" height="70" as="geometry" />
        </mxCell>
        <mxCell id="yifIly_M_i_Lslrt3uDn-1" style="edgeStyle=orthogonalEdgeStyle;rounded=0;orthogonalLoop=1;jettySize=auto;html=1;exitX=0.5;exitY=1;exitDx=0;exitDy=0;entryX=0.5;entryY=0;entryDx=0;entryDy=0;" edge="1" parent="1" source="kQ22yX0z1VIjIpw_Q_5K-154" target="kQ22yX0z1VIjIpw_Q_5K-11">
          <mxGeometry relative="1" as="geometry">
            <mxPoint x="439.99999999999955" y="-50" as="targetPoint" />
          </mxGeometry>
        </mxCell>
        <mxCell id="kQ22yX0z1VIjIpw_Q_5K-154" value="1:1" style="shape=rhombus;perimeter=rhombusPerimeter;whiteSpace=wrap;html=1;align=center;" parent="1" vertex="1">
          <mxGeometry x="370" y="-360" width="120" height="70" as="geometry" />
        </mxCell>
        <mxCell id="RCfMNCTIA7jrwXTFkUlR-14" style="edgeStyle=orthogonalEdgeStyle;rounded=0;orthogonalLoop=1;jettySize=auto;html=1;entryX=0.75;entryY=0;entryDx=0;entryDy=0;" parent="1" source="kQ22yX0z1VIjIpw_Q_5K-157" target="kQ22yX0z1VIjIpw_Q_5K-11" edge="1">
          <mxGeometry relative="1" as="geometry">
            <Array as="points">
              <mxPoint x="580" y="-290" />
              <mxPoint x="460" y="-290" />
            </Array>
          </mxGeometry>
        </mxCell>
        <mxCell id="kQ22yX0z1VIjIpw_Q_5K-157" value="1:1" style="shape=rhombus;perimeter=rhombusPerimeter;whiteSpace=wrap;html=1;align=center;" parent="1" vertex="1">
          <mxGeometry x="520" y="-360" width="120" height="70" as="geometry" />
        </mxCell>
        <mxCell id="yifIly_M_i_Lslrt3uDn-13" style="edgeStyle=orthogonalEdgeStyle;rounded=0;orthogonalLoop=1;jettySize=auto;html=1;exitX=1;exitY=0.5;exitDx=0;exitDy=0;entryX=0;entryY=0;entryDx=0;entryDy=0;" edge="1" parent="1" source="kQ22yX0z1VIjIpw_Q_5K-203" target="kQ22yX0z1VIjIpw_Q_5K-11">
          <mxGeometry relative="1" as="geometry" />
        </mxCell>
        <mxCell id="kQ22yX0z1VIjIpw_Q_5K-203" value="&lt;u&gt;id_Hogar&lt;/u&gt;" style="ellipse;whiteSpace=wrap;html=1;align=center;" parent="1" vertex="1">
          <mxGeometry x="-130" y="-75" width="100" height="40" as="geometry" />
        </mxCell>
        <mxCell id="kQ22yX0z1VIjIpw_Q_5K-208" style="edgeStyle=orthogonalEdgeStyle;rounded=0;orthogonalLoop=1;jettySize=auto;html=1;exitX=0.5;exitY=0;exitDx=0;exitDy=0;entryX=0.5;entryY=1;entryDx=0;entryDy=0;" parent="1" source="kQ22yX0z1VIjIpw_Q_5K-205" target="kQ22yX0z1VIjIpw_Q_5K-24" edge="1">
          <mxGeometry relative="1" as="geometry">
            <mxPoint x="210" y="784" as="targetPoint" />
            <Array as="points">
              <mxPoint x="128" y="794" />
              <mxPoint x="200" y="794" />
            </Array>
          </mxGeometry>
        </mxCell>
        <mxCell id="kQ22yX0z1VIjIpw_Q_5K-205" value="Id_Acceso" style="ellipse;whiteSpace=wrap;html=1;align=center;" parent="1" vertex="1">
          <mxGeometry x="92.5" y="824" width="70" height="20" as="geometry" />
        </mxCell>
        <mxCell id="kQ22yX0z1VIjIpw_Q_5K-218" style="edgeStyle=orthogonalEdgeStyle;rounded=0;orthogonalLoop=1;jettySize=auto;html=1;exitX=0.5;exitY=0;exitDx=0;exitDy=0;entryX=0.5;entryY=1;entryDx=0;entryDy=0;" parent="1" source="kQ22yX0z1VIjIpw_Q_5K-206" target="kQ22yX0z1VIjIpw_Q_5K-24" edge="1">
          <mxGeometry relative="1" as="geometry">
            <Array as="points">
              <mxPoint x="200" y="824" />
            </Array>
          </mxGeometry>
        </mxCell>
        <mxCell id="kQ22yX0z1VIjIpw_Q_5K-206" value="Accesos" style="ellipse;whiteSpace=wrap;html=1;align=center;" parent="1" vertex="1">
          <mxGeometry x="167.5" y="824" width="60" height="20" as="geometry" />
        </mxCell>
        <mxCell id="kQ22yX0z1VIjIpw_Q_5K-212" style="edgeStyle=orthogonalEdgeStyle;rounded=0;orthogonalLoop=1;jettySize=auto;html=1;exitX=0.5;exitY=0;exitDx=0;exitDy=0;" parent="1" source="kQ22yX0z1VIjIpw_Q_5K-209" edge="1">
          <mxGeometry relative="1" as="geometry">
            <mxPoint x="40" y="754" as="targetPoint" />
            <Array as="points">
              <mxPoint x="40" y="774" />
            </Array>
          </mxGeometry>
        </mxCell>
        <mxCell id="kQ22yX0z1VIjIpw_Q_5K-209" value="IdTipo_Vivienda" style="ellipse;whiteSpace=wrap;html=1;align=center;" parent="1" vertex="1">
          <mxGeometry x="-65" y="774" width="95" height="30" as="geometry" />
        </mxCell>
        <mxCell id="kQ22yX0z1VIjIpw_Q_5K-211" style="edgeStyle=orthogonalEdgeStyle;rounded=0;orthogonalLoop=1;jettySize=auto;html=1;exitX=0.5;exitY=0;exitDx=0;exitDy=0;entryX=0.5;entryY=1;entryDx=0;entryDy=0;" parent="1" source="kQ22yX0z1VIjIpw_Q_5K-210" target="kQ22yX0z1VIjIpw_Q_5K-28" edge="1">
          <mxGeometry relative="1" as="geometry">
            <Array as="points">
              <mxPoint x="40" y="774" />
            </Array>
          </mxGeometry>
        </mxCell>
        <mxCell id="kQ22yX0z1VIjIpw_Q_5K-210" value="T_Viviendas" style="ellipse;whiteSpace=wrap;html=1;align=center;" parent="1" vertex="1">
          <mxGeometry x="40" y="774" width="70" height="30" as="geometry" />
        </mxCell>
        <mxCell id="kQ22yX0z1VIjIpw_Q_5K-220" style="edgeStyle=orthogonalEdgeStyle;rounded=0;orthogonalLoop=1;jettySize=auto;html=1;exitX=0.5;exitY=0;exitDx=0;exitDy=0;entryX=0.5;entryY=1;entryDx=0;entryDy=0;" parent="1" source="kQ22yX0z1VIjIpw_Q_5K-215" target="kQ22yX0z1VIjIpw_Q_5K-29" edge="1">
          <mxGeometry relative="1" as="geometry" />
        </mxCell>
        <mxCell id="kQ22yX0z1VIjIpw_Q_5K-215" value="Id_MaterialT" style="ellipse;whiteSpace=wrap;html=1;align=center;" parent="1" vertex="1">
          <mxGeometry x="240" y="824" width="70" height="30" as="geometry" />
        </mxCell>
        <mxCell id="kQ22yX0z1VIjIpw_Q_5K-219" style="edgeStyle=orthogonalEdgeStyle;rounded=0;orthogonalLoop=1;jettySize=auto;html=1;exitX=0.5;exitY=0;exitDx=0;exitDy=0;entryX=0.5;entryY=1;entryDx=0;entryDy=0;" parent="1" source="kQ22yX0z1VIjIpw_Q_5K-216" target="kQ22yX0z1VIjIpw_Q_5K-29" edge="1">
          <mxGeometry relative="1" as="geometry" />
        </mxCell>
        <mxCell id="kQ22yX0z1VIjIpw_Q_5K-216" value="T_Techo" style="ellipse;whiteSpace=wrap;html=1;align=center;" parent="1" vertex="1">
          <mxGeometry x="320" y="824" width="60" height="30" as="geometry" />
        </mxCell>
        <mxCell id="kQ22yX0z1VIjIpw_Q_5K-223" style="edgeStyle=orthogonalEdgeStyle;rounded=0;orthogonalLoop=1;jettySize=auto;html=1;exitX=0.5;exitY=0;exitDx=0;exitDy=0;entryX=0.5;entryY=1;entryDx=0;entryDy=0;" parent="1" source="kQ22yX0z1VIjIpw_Q_5K-221" target="kQ22yX0z1VIjIpw_Q_5K-30" edge="1">
          <mxGeometry relative="1" as="geometry" />
        </mxCell>
        <mxCell id="kQ22yX0z1VIjIpw_Q_5K-221" value="Id_EstadoT" style="ellipse;whiteSpace=wrap;html=1;align=center;" parent="1" vertex="1">
          <mxGeometry x="388" y="824" width="70" height="30" as="geometry" />
        </mxCell>
        <mxCell id="kQ22yX0z1VIjIpw_Q_5K-224" style="edgeStyle=orthogonalEdgeStyle;rounded=0;orthogonalLoop=1;jettySize=auto;html=1;exitX=0.5;exitY=0;exitDx=0;exitDy=0;entryX=0.5;entryY=1;entryDx=0;entryDy=0;" parent="1" source="kQ22yX0z1VIjIpw_Q_5K-222" target="kQ22yX0z1VIjIpw_Q_5K-30" edge="1">
          <mxGeometry relative="1" as="geometry" />
        </mxCell>
        <mxCell id="kQ22yX0z1VIjIpw_Q_5K-222" value="E_Techo" style="ellipse;whiteSpace=wrap;html=1;align=center;" parent="1" vertex="1">
          <mxGeometry x="460" y="824" width="60" height="30" as="geometry" />
        </mxCell>
        <mxCell id="kQ22yX0z1VIjIpw_Q_5K-230" style="edgeStyle=orthogonalEdgeStyle;rounded=0;orthogonalLoop=1;jettySize=auto;html=1;exitX=1;exitY=0;exitDx=0;exitDy=0;" parent="1" source="kQ22yX0z1VIjIpw_Q_5K-225" edge="1">
          <mxGeometry relative="1" as="geometry">
            <mxPoint x="580" y="774" as="targetPoint" />
          </mxGeometry>
        </mxCell>
        <mxCell id="kQ22yX0z1VIjIpw_Q_5K-225" value="Id_MaterialP" style="ellipse;whiteSpace=wrap;html=1;align=center;" parent="1" vertex="1">
          <mxGeometry x="510" y="794" width="70" height="30" as="geometry" />
        </mxCell>
        <mxCell id="kQ22yX0z1VIjIpw_Q_5K-229" style="edgeStyle=orthogonalEdgeStyle;rounded=0;orthogonalLoop=1;jettySize=auto;html=1;exitX=0;exitY=0;exitDx=0;exitDy=0;entryX=0.5;entryY=1;entryDx=0;entryDy=0;" parent="1" source="kQ22yX0z1VIjIpw_Q_5K-226" target="kQ22yX0z1VIjIpw_Q_5K-31" edge="1">
          <mxGeometry relative="1" as="geometry" />
        </mxCell>
        <mxCell id="kQ22yX0z1VIjIpw_Q_5K-226" value="T_Piso" style="ellipse;whiteSpace=wrap;html=1;align=center;" parent="1" vertex="1">
          <mxGeometry x="585" y="794" width="60" height="30" as="geometry" />
        </mxCell>
        <mxCell id="kQ22yX0z1VIjIpw_Q_5K-232" style="edgeStyle=orthogonalEdgeStyle;rounded=0;orthogonalLoop=1;jettySize=auto;html=1;exitX=1;exitY=0;exitDx=0;exitDy=0;entryX=0.5;entryY=1;entryDx=0;entryDy=0;" parent="1" source="kQ22yX0z1VIjIpw_Q_5K-227" target="kQ22yX0z1VIjIpw_Q_5K-32" edge="1">
          <mxGeometry relative="1" as="geometry">
            <Array as="points">
              <mxPoint x="730" y="794" />
              <mxPoint x="690" y="794" />
            </Array>
          </mxGeometry>
        </mxCell>
        <mxCell id="kQ22yX0z1VIjIpw_Q_5K-227" value="Id_Estadop" style="ellipse;whiteSpace=wrap;html=1;align=center;" parent="1" vertex="1">
          <mxGeometry x="670" y="804" width="70" height="30" as="geometry" />
        </mxCell>
        <mxCell id="kQ22yX0z1VIjIpw_Q_5K-231" style="edgeStyle=orthogonalEdgeStyle;rounded=0;orthogonalLoop=1;jettySize=auto;html=1;exitX=0;exitY=0;exitDx=0;exitDy=0;entryX=0.5;entryY=1;entryDx=0;entryDy=0;" parent="1" source="kQ22yX0z1VIjIpw_Q_5K-228" target="kQ22yX0z1VIjIpw_Q_5K-32" edge="1">
          <mxGeometry relative="1" as="geometry">
            <Array as="points">
              <mxPoint x="751" y="794" />
              <mxPoint x="690" y="794" />
            </Array>
          </mxGeometry>
        </mxCell>
        <mxCell id="kQ22yX0z1VIjIpw_Q_5K-228" value="E_Piso" style="ellipse;whiteSpace=wrap;html=1;align=center;" parent="1" vertex="1">
          <mxGeometry x="742" y="804" width="60" height="30" as="geometry" />
        </mxCell>
        <mxCell id="kQ22yX0z1VIjIpw_Q_5K-238" style="edgeStyle=orthogonalEdgeStyle;rounded=0;orthogonalLoop=1;jettySize=auto;html=1;exitX=1;exitY=0;exitDx=0;exitDy=0;entryX=0.5;entryY=1;entryDx=0;entryDy=0;" parent="1" source="kQ22yX0z1VIjIpw_Q_5K-233" target="kQ22yX0z1VIjIpw_Q_5K-33" edge="1">
          <mxGeometry relative="1" as="geometry" />
        </mxCell>
        <mxCell id="kQ22yX0z1VIjIpw_Q_5K-233" value="Id_MaterialP" style="ellipse;whiteSpace=wrap;html=1;align=center;" parent="1" vertex="1">
          <mxGeometry x="802" y="754" width="70" height="30" as="geometry" />
        </mxCell>
        <mxCell id="kQ22yX0z1VIjIpw_Q_5K-237" style="edgeStyle=orthogonalEdgeStyle;rounded=0;orthogonalLoop=1;jettySize=auto;html=1;exitX=0;exitY=0;exitDx=0;exitDy=0;entryX=0.5;entryY=1;entryDx=0;entryDy=0;" parent="1" source="kQ22yX0z1VIjIpw_Q_5K-234" target="kQ22yX0z1VIjIpw_Q_5K-33" edge="1">
          <mxGeometry relative="1" as="geometry" />
        </mxCell>
        <mxCell id="kQ22yX0z1VIjIpw_Q_5K-234" value="T_Pared" style="ellipse;whiteSpace=wrap;html=1;align=center;" parent="1" vertex="1">
          <mxGeometry x="890" y="754" width="60" height="30" as="geometry" />
        </mxCell>
        <mxCell id="kQ22yX0z1VIjIpw_Q_5K-240" style="edgeStyle=orthogonalEdgeStyle;rounded=0;orthogonalLoop=1;jettySize=auto;html=1;exitX=0;exitY=0.5;exitDx=0;exitDy=0;entryX=1;entryY=0.5;entryDx=0;entryDy=0;" parent="1" source="kQ22yX0z1VIjIpw_Q_5K-235" target="kQ22yX0z1VIjIpw_Q_5K-34" edge="1">
          <mxGeometry relative="1" as="geometry" />
        </mxCell>
        <mxCell id="kQ22yX0z1VIjIpw_Q_5K-235" value="Id_EstadoT" style="ellipse;whiteSpace=wrap;html=1;align=center;" parent="1" vertex="1">
          <mxGeometry x="1100" y="649" width="70" height="30" as="geometry" />
        </mxCell>
        <mxCell id="kQ22yX0z1VIjIpw_Q_5K-241" style="edgeStyle=orthogonalEdgeStyle;rounded=0;orthogonalLoop=1;jettySize=auto;html=1;exitX=0;exitY=0.5;exitDx=0;exitDy=0;entryX=1;entryY=0.5;entryDx=0;entryDy=0;" parent="1" source="kQ22yX0z1VIjIpw_Q_5K-236" target="kQ22yX0z1VIjIpw_Q_5K-34" edge="1">
          <mxGeometry relative="1" as="geometry" />
        </mxCell>
        <mxCell id="kQ22yX0z1VIjIpw_Q_5K-236" value="E_Techo" style="ellipse;whiteSpace=wrap;html=1;align=center;" parent="1" vertex="1">
          <mxGeometry x="1100" y="614" width="60" height="30" as="geometry" />
        </mxCell>
        <mxCell id="kQ22yX0z1VIjIpw_Q_5K-245" style="edgeStyle=orthogonalEdgeStyle;rounded=0;orthogonalLoop=1;jettySize=auto;html=1;exitX=1;exitY=0.5;exitDx=0;exitDy=0;entryX=0.5;entryY=1;entryDx=0;entryDy=0;" parent="1" source="kQ22yX0z1VIjIpw_Q_5K-242" target="kQ22yX0z1VIjIpw_Q_5K-41" edge="1">
          <mxGeometry relative="1" as="geometry" />
        </mxCell>
        <mxCell id="kQ22yX0z1VIjIpw_Q_5K-242" value="IdMaterialCocina" style="ellipse;whiteSpace=wrap;html=1;align=center;" parent="1" vertex="1">
          <mxGeometry x="-277.5" y="716.5" width="115" height="35" as="geometry" />
        </mxCell>
        <mxCell id="kQ22yX0z1VIjIpw_Q_5K-246" style="edgeStyle=orthogonalEdgeStyle;rounded=0;orthogonalLoop=1;jettySize=auto;html=1;exitX=0.5;exitY=0;exitDx=0;exitDy=0;entryX=0.5;entryY=1;entryDx=0;entryDy=0;" parent="1" source="kQ22yX0z1VIjIpw_Q_5K-243" target="kQ22yX0z1VIjIpw_Q_5K-41" edge="1">
          <mxGeometry relative="1" as="geometry">
            <Array as="points">
              <mxPoint x="-80" y="734" />
            </Array>
          </mxGeometry>
        </mxCell>
        <mxCell id="kQ22yX0z1VIjIpw_Q_5K-243" value="MaterialesCocina" style="ellipse;whiteSpace=wrap;html=1;align=center;" parent="1" vertex="1">
          <mxGeometry x="-200" y="754" width="120" height="30" as="geometry" />
        </mxCell>
        <mxCell id="kQ22yX0z1VIjIpw_Q_5K-249" style="edgeStyle=orthogonalEdgeStyle;rounded=0;orthogonalLoop=1;jettySize=auto;html=1;exitX=1;exitY=0.5;exitDx=0;exitDy=0;entryX=0.5;entryY=1;entryDx=0;entryDy=0;" parent="1" source="kQ22yX0z1VIjIpw_Q_5K-247" target="kQ22yX0z1VIjIpw_Q_5K-42" edge="1">
          <mxGeometry relative="1" as="geometry">
            <Array as="points">
              <mxPoint x="-185" y="664" />
            </Array>
          </mxGeometry>
        </mxCell>
        <mxCell id="kQ22yX0z1VIjIpw_Q_5K-247" value="IdServicioHigienico" style="ellipse;whiteSpace=wrap;html=1;align=center;" parent="1" vertex="1">
          <mxGeometry x="-392.5" y="646.5" width="115" height="35" as="geometry" />
        </mxCell>
        <mxCell id="kQ22yX0z1VIjIpw_Q_5K-250" style="edgeStyle=orthogonalEdgeStyle;rounded=0;orthogonalLoop=1;jettySize=auto;html=1;exitX=1;exitY=0.5;exitDx=0;exitDy=0;entryX=0.5;entryY=1;entryDx=0;entryDy=0;" parent="1" source="kQ22yX0z1VIjIpw_Q_5K-248" target="kQ22yX0z1VIjIpw_Q_5K-42" edge="1">
          <mxGeometry relative="1" as="geometry" />
        </mxCell>
        <mxCell id="kQ22yX0z1VIjIpw_Q_5K-248" value="ServiciosHigienicos" style="ellipse;whiteSpace=wrap;html=1;align=center;" parent="1" vertex="1">
          <mxGeometry x="-330" y="681.5" width="120" height="30" as="geometry" />
        </mxCell>
        <mxCell id="kQ22yX0z1VIjIpw_Q_5K-255" style="edgeStyle=orthogonalEdgeStyle;rounded=0;orthogonalLoop=1;jettySize=auto;html=1;exitX=1;exitY=0.5;exitDx=0;exitDy=0;entryX=0;entryY=0.5;entryDx=0;entryDy=0;" parent="1" source="kQ22yX0z1VIjIpw_Q_5K-251" target="kQ22yX0z1VIjIpw_Q_5K-43" edge="1">
          <mxGeometry relative="1" as="geometry" />
        </mxCell>
        <mxCell id="kQ22yX0z1VIjIpw_Q_5K-251" value="IdServicioHigienico_NO" style="ellipse;whiteSpace=wrap;html=1;align=center;" parent="1" vertex="1">
          <mxGeometry x="-540" y="556.5" width="130" height="35" as="geometry" />
        </mxCell>
        <mxCell id="kQ22yX0z1VIjIpw_Q_5K-253" style="edgeStyle=orthogonalEdgeStyle;rounded=0;orthogonalLoop=1;jettySize=auto;html=1;exitX=0.5;exitY=0;exitDx=0;exitDy=0;entryX=0;entryY=0.5;entryDx=0;entryDy=0;" parent="1" source="kQ22yX0z1VIjIpw_Q_5K-252" target="kQ22yX0z1VIjIpw_Q_5K-43" edge="1">
          <mxGeometry relative="1" as="geometry">
            <Array as="points">
              <mxPoint x="-386" y="574" />
            </Array>
          </mxGeometry>
        </mxCell>
        <mxCell id="kQ22yX0z1VIjIpw_Q_5K-252" value="ServiciosHigienicos_NO" style="ellipse;whiteSpace=wrap;html=1;align=center;" parent="1" vertex="1">
          <mxGeometry x="-460" y="596.5" width="147.5" height="35" as="geometry" />
        </mxCell>
        <mxCell id="kQ22yX0z1VIjIpw_Q_5K-260" style="edgeStyle=orthogonalEdgeStyle;rounded=0;orthogonalLoop=1;jettySize=auto;html=1;exitX=0;exitY=0.5;exitDx=0;exitDy=0;entryX=1;entryY=0.5;entryDx=0;entryDy=0;" parent="1" source="kQ22yX0z1VIjIpw_Q_5K-256" target="kQ22yX0z1VIjIpw_Q_5K-47" edge="1">
          <mxGeometry relative="1" as="geometry">
            <Array as="points">
              <mxPoint x="1300" y="459" />
              <mxPoint x="1300" y="454" />
              <mxPoint x="1270" y="454" />
              <mxPoint x="1270" y="484" />
            </Array>
          </mxGeometry>
        </mxCell>
        <mxCell id="kQ22yX0z1VIjIpw_Q_5K-256" value="ObtieneAgua" style="ellipse;whiteSpace=wrap;html=1;align=center;" parent="1" vertex="1">
          <mxGeometry x="1320" y="444" width="105" height="30" as="geometry" />
        </mxCell>
        <mxCell id="kQ22yX0z1VIjIpw_Q_5K-258" style="edgeStyle=orthogonalEdgeStyle;rounded=0;orthogonalLoop=1;jettySize=auto;html=1;exitX=0;exitY=0.5;exitDx=0;exitDy=0;entryX=1;entryY=0.5;entryDx=0;entryDy=0;" parent="1" source="kQ22yX0z1VIjIpw_Q_5K-257" target="kQ22yX0z1VIjIpw_Q_5K-47" edge="1">
          <mxGeometry relative="1" as="geometry">
            <Array as="points">
              <mxPoint x="1300" y="424" />
              <mxPoint x="1300" y="454" />
              <mxPoint x="1270" y="454" />
              <mxPoint x="1270" y="484" />
            </Array>
          </mxGeometry>
        </mxCell>
        <mxCell id="kQ22yX0z1VIjIpw_Q_5K-257" value="Id_ObtieneAgua" style="ellipse;whiteSpace=wrap;html=1;align=center;" parent="1" vertex="1">
          <mxGeometry x="1320" y="409" width="105" height="30" as="geometry" />
        </mxCell>
        <mxCell id="kQ22yX0z1VIjIpw_Q_5K-264" style="edgeStyle=orthogonalEdgeStyle;rounded=0;orthogonalLoop=1;jettySize=auto;html=1;exitX=0;exitY=0.5;exitDx=0;exitDy=0;entryX=1;entryY=0.5;entryDx=0;entryDy=0;" parent="1" source="kQ22yX0z1VIjIpw_Q_5K-261" target="kQ22yX0z1VIjIpw_Q_5K-53" edge="1">
          <mxGeometry relative="1" as="geometry" />
        </mxCell>
        <mxCell id="kQ22yX0z1VIjIpw_Q_5K-261" value="Recibe_Agua" style="ellipse;whiteSpace=wrap;html=1;align=center;" parent="1" vertex="1">
          <mxGeometry x="1275" y="536.5" width="105" height="30" as="geometry" />
        </mxCell>
        <mxCell id="kQ22yX0z1VIjIpw_Q_5K-263" style="edgeStyle=orthogonalEdgeStyle;rounded=0;orthogonalLoop=1;jettySize=auto;html=1;exitX=0;exitY=0.5;exitDx=0;exitDy=0;entryX=1;entryY=0.5;entryDx=0;entryDy=0;" parent="1" source="kQ22yX0z1VIjIpw_Q_5K-262" target="kQ22yX0z1VIjIpw_Q_5K-53" edge="1">
          <mxGeometry relative="1" as="geometry" />
        </mxCell>
        <mxCell id="kQ22yX0z1VIjIpw_Q_5K-262" value="Id_RecibeAgua" style="ellipse;whiteSpace=wrap;html=1;align=center;" parent="1" vertex="1">
          <mxGeometry x="1275" y="501.5" width="105" height="30" as="geometry" />
        </mxCell>
        <mxCell id="kQ22yX0z1VIjIpw_Q_5K-268" style="edgeStyle=orthogonalEdgeStyle;rounded=0;orthogonalLoop=1;jettySize=auto;html=1;exitX=0.5;exitY=1;exitDx=0;exitDy=0;" parent="1" source="kQ22yX0z1VIjIpw_Q_5K-265" edge="1">
          <mxGeometry relative="1" as="geometry">
            <mxPoint x="430" y="-430" as="targetPoint" />
          </mxGeometry>
        </mxCell>
        <mxCell id="kQ22yX0z1VIjIpw_Q_5K-265" value="Id_ServicioDucha" style="ellipse;whiteSpace=wrap;html=1;align=center;" parent="1" vertex="1">
          <mxGeometry x="330" y="-530" width="100" height="40" as="geometry" />
        </mxCell>
        <mxCell id="kQ22yX0z1VIjIpw_Q_5K-267" style="edgeStyle=orthogonalEdgeStyle;rounded=0;orthogonalLoop=1;jettySize=auto;html=1;exitX=0.5;exitY=1;exitDx=0;exitDy=0;entryX=0.5;entryY=0;entryDx=0;entryDy=0;" parent="1" source="kQ22yX0z1VIjIpw_Q_5K-266" target="kQ22yX0z1VIjIpw_Q_5K-54" edge="1">
          <mxGeometry relative="1" as="geometry" />
        </mxCell>
        <mxCell id="kQ22yX0z1VIjIpw_Q_5K-266" value="ServiciosDucha" style="ellipse;whiteSpace=wrap;html=1;align=center;" parent="1" vertex="1">
          <mxGeometry x="440" y="-530" width="100" height="40" as="geometry" />
        </mxCell>
        <mxCell id="kQ22yX0z1VIjIpw_Q_5K-271" style="edgeStyle=orthogonalEdgeStyle;rounded=0;orthogonalLoop=1;jettySize=auto;html=1;exitX=0.5;exitY=1;exitDx=0;exitDy=0;entryX=0.5;entryY=0;entryDx=0;entryDy=0;" parent="1" source="kQ22yX0z1VIjIpw_Q_5K-269" target="kQ22yX0z1VIjIpw_Q_5K-55" edge="1">
          <mxGeometry relative="1" as="geometry">
            <Array as="points">
              <mxPoint x="250" y="-480" />
              <mxPoint x="280" y="-480" />
            </Array>
          </mxGeometry>
        </mxCell>
        <mxCell id="kQ22yX0z1VIjIpw_Q_5K-269" value="Id_Alumbrado" style="ellipse;whiteSpace=wrap;html=1;align=center;" parent="1" vertex="1">
          <mxGeometry x="200" y="-510" width="100" height="40" as="geometry" />
        </mxCell>
        <mxCell id="kQ22yX0z1VIjIpw_Q_5K-272" style="edgeStyle=orthogonalEdgeStyle;rounded=0;orthogonalLoop=1;jettySize=auto;html=1;exitX=1;exitY=0.5;exitDx=0;exitDy=0;" parent="1" source="kQ22yX0z1VIjIpw_Q_5K-270" edge="1">
          <mxGeometry relative="1" as="geometry">
            <mxPoint x="279.9999999999998" y="-430" as="targetPoint" />
          </mxGeometry>
        </mxCell>
        <mxCell id="kQ22yX0z1VIjIpw_Q_5K-270" value="TipoAlumbrado" style="ellipse;whiteSpace=wrap;html=1;align=center;" parent="1" vertex="1">
          <mxGeometry x="100" y="-480" width="100" height="40" as="geometry" />
        </mxCell>
        <mxCell id="kQ22yX0z1VIjIpw_Q_5K-278" style="edgeStyle=orthogonalEdgeStyle;rounded=0;orthogonalLoop=1;jettySize=auto;html=1;exitX=1;exitY=0.5;exitDx=0;exitDy=0;entryX=0;entryY=0.5;entryDx=0;entryDy=0;" parent="1" target="kQ22yX0z1VIjIpw_Q_5K-56" edge="1">
          <mxGeometry relative="1" as="geometry">
            <mxPoint x="-530" y="471.5" as="sourcePoint" />
            <mxPoint x="-410" y="514" as="targetPoint" />
            <Array as="points">
              <mxPoint x="-430" y="471" />
              <mxPoint x="-430" y="514" />
            </Array>
          </mxGeometry>
        </mxCell>
        <mxCell id="kQ22yX0z1VIjIpw_Q_5K-273" value="IdEliminarBasura" style="ellipse;whiteSpace=wrap;html=1;align=center;" parent="1" vertex="1">
          <mxGeometry x="-659" y="464" width="130" height="35" as="geometry" />
        </mxCell>
        <mxCell id="kQ22yX0z1VIjIpw_Q_5K-277" style="edgeStyle=orthogonalEdgeStyle;rounded=0;orthogonalLoop=1;jettySize=auto;html=1;exitX=1;exitY=0.5;exitDx=0;exitDy=0;entryX=0;entryY=0.5;entryDx=0;entryDy=0;" parent="1" source="kQ22yX0z1VIjIpw_Q_5K-276" target="kQ22yX0z1VIjIpw_Q_5K-56" edge="1">
          <mxGeometry relative="1" as="geometry" />
        </mxCell>
        <mxCell id="kQ22yX0z1VIjIpw_Q_5K-276" value="FormaEliminarBasura" style="ellipse;whiteSpace=wrap;html=1;align=center;" parent="1" vertex="1">
          <mxGeometry x="-580" y="496.5" width="130" height="35" as="geometry" />
        </mxCell>
        <mxCell id="kQ22yX0z1VIjIpw_Q_5K-281" style="edgeStyle=orthogonalEdgeStyle;rounded=0;orthogonalLoop=1;jettySize=auto;html=1;exitX=0.5;exitY=1;exitDx=0;exitDy=0;entryX=0.75;entryY=0;entryDx=0;entryDy=0;" parent="1" source="kQ22yX0z1VIjIpw_Q_5K-279" target="kQ22yX0z1VIjIpw_Q_5K-57" edge="1">
          <mxGeometry relative="1" as="geometry">
            <Array as="points">
              <mxPoint x="642" y="-460" />
              <mxPoint x="610" y="-460" />
            </Array>
          </mxGeometry>
        </mxCell>
        <mxCell id="kQ22yX0z1VIjIpw_Q_5K-279" value="Id_TeneciaVivienda" style="ellipse;whiteSpace=wrap;html=1;align=center;" parent="1" vertex="1">
          <mxGeometry x="592" y="-510" width="118" height="40" as="geometry" />
        </mxCell>
        <mxCell id="kQ22yX0z1VIjIpw_Q_5K-282" style="edgeStyle=orthogonalEdgeStyle;rounded=0;orthogonalLoop=1;jettySize=auto;html=1;exitX=0;exitY=0.5;exitDx=0;exitDy=0;entryX=0.75;entryY=0;entryDx=0;entryDy=0;" parent="1" source="kQ22yX0z1VIjIpw_Q_5K-280" target="kQ22yX0z1VIjIpw_Q_5K-57" edge="1">
          <mxGeometry relative="1" as="geometry" />
        </mxCell>
        <mxCell id="kQ22yX0z1VIjIpw_Q_5K-280" value="Forma_TenenciaVivienda" style="ellipse;whiteSpace=wrap;html=1;align=center;" parent="1" vertex="1">
          <mxGeometry x="690" y="-480" width="140" height="40" as="geometry" />
        </mxCell>
        <mxCell id="kQ22yX0z1VIjIpw_Q_5K-284" style="edgeStyle=orthogonalEdgeStyle;rounded=0;orthogonalLoop=1;jettySize=auto;html=1;exitX=0.5;exitY=0;exitDx=0;exitDy=0;entryX=1;entryY=0.5;entryDx=0;entryDy=0;" parent="1" source="kQ22yX0z1VIjIpw_Q_5K-283" target="kQ22yX0z1VIjIpw_Q_5K-8" edge="1">
          <mxGeometry relative="1" as="geometry" />
        </mxCell>
        <mxCell id="kQ22yX0z1VIjIpw_Q_5K-283" value="NumeroVivienda" style="ellipse;whiteSpace=wrap;html=1;align=center;" parent="1" vertex="1">
          <mxGeometry x="1140" y="335" width="100" height="40" as="geometry" />
        </mxCell>
        <mxCell id="yifIly_M_i_Lslrt3uDn-9" style="edgeStyle=orthogonalEdgeStyle;rounded=0;orthogonalLoop=1;jettySize=auto;html=1;exitX=1;exitY=0.5;exitDx=0;exitDy=0;entryX=0;entryY=0;entryDx=0;entryDy=0;" edge="1" parent="1" source="kQ22yX0z1VIjIpw_Q_5K-285" target="kQ22yX0z1VIjIpw_Q_5K-11">
          <mxGeometry relative="1" as="geometry" />
        </mxCell>
        <mxCell id="kQ22yX0z1VIjIpw_Q_5K-285" value="NumeroHogar" style="ellipse;whiteSpace=wrap;html=1;align=center;" parent="1" vertex="1">
          <mxGeometry x="60" y="-275" width="140" height="40" as="geometry" />
        </mxCell>
        <mxCell id="kQ22yX0z1VIjIpw_Q_5K-291" style="edgeStyle=orthogonalEdgeStyle;rounded=0;orthogonalLoop=1;jettySize=auto;html=1;exitX=0;exitY=0.5;exitDx=0;exitDy=0;entryX=1;entryY=0.5;entryDx=0;entryDy=0;" parent="1" source="kQ22yX0z1VIjIpw_Q_5K-287" target="kQ22yX0z1VIjIpw_Q_5K-46" edge="1">
          <mxGeometry relative="1" as="geometry" />
        </mxCell>
        <mxCell id="kQ22yX0z1VIjIpw_Q_5K-287" value="ID_InstalacionS" style="ellipse;whiteSpace=wrap;html=1;align=center;" parent="1" vertex="1">
          <mxGeometry x="1211" y="604" width="99" height="30" as="geometry" />
        </mxCell>
        <mxCell id="kQ22yX0z1VIjIpw_Q_5K-290" style="edgeStyle=orthogonalEdgeStyle;rounded=0;orthogonalLoop=1;jettySize=auto;html=1;exitX=0;exitY=0.5;exitDx=0;exitDy=0;entryX=1;entryY=0.5;entryDx=0;entryDy=0;" parent="1" source="kQ22yX0z1VIjIpw_Q_5K-288" target="kQ22yX0z1VIjIpw_Q_5K-46" edge="1">
          <mxGeometry relative="1" as="geometry" />
        </mxCell>
        <mxCell id="kQ22yX0z1VIjIpw_Q_5K-288" value="InstalacionesS" style="ellipse;whiteSpace=wrap;html=1;align=center;" parent="1" vertex="1">
          <mxGeometry x="1211" y="569" width="109" height="30" as="geometry" />
        </mxCell>
        <mxCell id="kQ22yX0z1VIjIpw_Q_5K-293" style="edgeStyle=orthogonalEdgeStyle;rounded=0;orthogonalLoop=1;jettySize=auto;html=1;exitX=0.5;exitY=0;exitDx=0;exitDy=0;entryX=1;entryY=0.5;entryDx=0;entryDy=0;" parent="1" source="kQ22yX0z1VIjIpw_Q_5K-292" target="kQ22yX0z1VIjIpw_Q_5K-8" edge="1">
          <mxGeometry relative="1" as="geometry">
            <Array as="points">
              <mxPoint x="1115" y="275" />
            </Array>
          </mxGeometry>
        </mxCell>
        <mxCell id="kQ22yX0z1VIjIpw_Q_5K-292" value="MedidorAgua" style="ellipse;whiteSpace=wrap;html=1;align=center;" parent="1" vertex="1">
          <mxGeometry x="1060" y="285" width="110" height="40" as="geometry" />
        </mxCell>
        <mxCell id="kQ22yX0z1VIjIpw_Q_5K-314" style="edgeStyle=orthogonalEdgeStyle;rounded=0;orthogonalLoop=1;jettySize=auto;html=1;exitX=0.5;exitY=1;exitDx=0;exitDy=0;entryX=1;entryY=0.5;entryDx=0;entryDy=0;" parent="1" source="kQ22yX0z1VIjIpw_Q_5K-294" target="kQ22yX0z1VIjIpw_Q_5K-11" edge="1">
          <mxGeometry relative="1" as="geometry" />
        </mxCell>
        <mxCell id="kQ22yX0z1VIjIpw_Q_5K-294" value="Abastecimiento_Super" style="ellipse;whiteSpace=wrap;html=1;align=center;" parent="1" vertex="1">
          <mxGeometry x="1469" y="-270" width="133" height="40" as="geometry" />
        </mxCell>
        <mxCell id="kQ22yX0z1VIjIpw_Q_5K-315" style="edgeStyle=orthogonalEdgeStyle;rounded=0;orthogonalLoop=1;jettySize=auto;html=1;exitX=0.5;exitY=1;exitDx=0;exitDy=0;entryX=1;entryY=0.5;entryDx=0;entryDy=0;" parent="1" source="kQ22yX0z1VIjIpw_Q_5K-295" target="kQ22yX0z1VIjIpw_Q_5K-11" edge="1">
          <mxGeometry relative="1" as="geometry" />
        </mxCell>
        <mxCell id="kQ22yX0z1VIjIpw_Q_5K-295" value="Costo_Super" style="ellipse;whiteSpace=wrap;html=1;align=center;" parent="1" vertex="1">
          <mxGeometry x="1576" y="-240" width="100" height="40" as="geometry" />
        </mxCell>
        <mxCell id="kQ22yX0z1VIjIpw_Q_5K-309" style="edgeStyle=orthogonalEdgeStyle;rounded=0;orthogonalLoop=1;jettySize=auto;html=1;exitX=0.5;exitY=1;exitDx=0;exitDy=0;entryX=1;entryY=0.5;entryDx=0;entryDy=0;" parent="1" source="kQ22yX0z1VIjIpw_Q_5K-297" target="kQ22yX0z1VIjIpw_Q_5K-11" edge="1">
          <mxGeometry relative="1" as="geometry" />
        </mxCell>
        <mxCell id="kQ22yX0z1VIjIpw_Q_5K-297" value="Abastecimiento_Extra" style="ellipse;whiteSpace=wrap;html=1;align=center;" parent="1" vertex="1">
          <mxGeometry x="1008" y="-140" width="133" height="40" as="geometry" />
        </mxCell>
        <mxCell id="kQ22yX0z1VIjIpw_Q_5K-308" style="edgeStyle=orthogonalEdgeStyle;rounded=0;orthogonalLoop=1;jettySize=auto;html=1;exitX=0.5;exitY=1;exitDx=0;exitDy=0;entryX=1;entryY=0.5;entryDx=0;entryDy=0;" parent="1" source="kQ22yX0z1VIjIpw_Q_5K-298" target="kQ22yX0z1VIjIpw_Q_5K-11" edge="1">
          <mxGeometry relative="1" as="geometry" />
        </mxCell>
        <mxCell id="kQ22yX0z1VIjIpw_Q_5K-298" value="Costo_Extra" style="ellipse;whiteSpace=wrap;html=1;align=center;" parent="1" vertex="1">
          <mxGeometry x="971" y="-100" width="100" height="40" as="geometry" />
        </mxCell>
        <mxCell id="kQ22yX0z1VIjIpw_Q_5K-311" style="edgeStyle=orthogonalEdgeStyle;rounded=0;orthogonalLoop=1;jettySize=auto;html=1;exitX=0.5;exitY=1;exitDx=0;exitDy=0;entryX=1;entryY=0.5;entryDx=0;entryDy=0;" parent="1" source="kQ22yX0z1VIjIpw_Q_5K-299" target="kQ22yX0z1VIjIpw_Q_5K-11" edge="1">
          <mxGeometry relative="1" as="geometry" />
        </mxCell>
        <mxCell id="kQ22yX0z1VIjIpw_Q_5K-299" value="Abastecimiento_Diesel" style="ellipse;whiteSpace=wrap;html=1;align=center;" parent="1" vertex="1">
          <mxGeometry x="1161" y="-210" width="133" height="40" as="geometry" />
        </mxCell>
        <mxCell id="kQ22yX0z1VIjIpw_Q_5K-310" style="edgeStyle=orthogonalEdgeStyle;rounded=0;orthogonalLoop=1;jettySize=auto;html=1;exitX=0.5;exitY=1;exitDx=0;exitDy=0;entryX=1;entryY=0.5;entryDx=0;entryDy=0;" parent="1" source="kQ22yX0z1VIjIpw_Q_5K-300" target="kQ22yX0z1VIjIpw_Q_5K-11" edge="1">
          <mxGeometry relative="1" as="geometry" />
        </mxCell>
        <mxCell id="kQ22yX0z1VIjIpw_Q_5K-300" value="Costo_Diesel" style="ellipse;whiteSpace=wrap;html=1;align=center;" parent="1" vertex="1">
          <mxGeometry x="1101" y="-180" width="100" height="40" as="geometry" />
        </mxCell>
        <mxCell id="kQ22yX0z1VIjIpw_Q_5K-312" style="edgeStyle=orthogonalEdgeStyle;rounded=0;orthogonalLoop=1;jettySize=auto;html=1;exitX=0.5;exitY=1;exitDx=0;exitDy=0;entryX=1;entryY=0.5;entryDx=0;entryDy=0;" parent="1" source="kQ22yX0z1VIjIpw_Q_5K-301" target="kQ22yX0z1VIjIpw_Q_5K-11" edge="1">
          <mxGeometry relative="1" as="geometry" />
        </mxCell>
        <mxCell id="kQ22yX0z1VIjIpw_Q_5K-301" value="Abastecimiento_Ecopais" style="ellipse;whiteSpace=wrap;html=1;align=center;" parent="1" vertex="1">
          <mxGeometry x="1262" y="-240" width="133" height="40" as="geometry" />
        </mxCell>
        <mxCell id="kQ22yX0z1VIjIpw_Q_5K-313" style="edgeStyle=orthogonalEdgeStyle;rounded=0;orthogonalLoop=1;jettySize=auto;html=1;exitX=0.5;exitY=1;exitDx=0;exitDy=0;entryX=1;entryY=0.5;entryDx=0;entryDy=0;" parent="1" source="kQ22yX0z1VIjIpw_Q_5K-302" target="kQ22yX0z1VIjIpw_Q_5K-11" edge="1">
          <mxGeometry relative="1" as="geometry" />
        </mxCell>
        <mxCell id="kQ22yX0z1VIjIpw_Q_5K-302" value="Costo_Ecopais" style="ellipse;whiteSpace=wrap;html=1;align=center;" parent="1" vertex="1">
          <mxGeometry x="1369" y="-270" width="100" height="40" as="geometry" />
        </mxCell>
        <mxCell id="kQ22yX0z1VIjIpw_Q_5K-317" style="edgeStyle=orthogonalEdgeStyle;rounded=0;orthogonalLoop=1;jettySize=auto;html=1;exitX=0;exitY=1;exitDx=0;exitDy=0;entryX=1;entryY=0.5;entryDx=0;entryDy=0;" parent="1" source="kQ22yX0z1VIjIpw_Q_5K-303" target="kQ22yX0z1VIjIpw_Q_5K-11" edge="1">
          <mxGeometry relative="1" as="geometry">
            <Array as="points">
              <mxPoint x="1695" y="-15" />
            </Array>
          </mxGeometry>
        </mxCell>
        <mxCell id="kQ22yX0z1VIjIpw_Q_5K-303" value="Abastecimiento_Electricidad" style="ellipse;whiteSpace=wrap;html=1;align=center;" parent="1" vertex="1">
          <mxGeometry x="1681" y="-160" width="170" height="40" as="geometry" />
        </mxCell>
        <mxCell id="kQ22yX0z1VIjIpw_Q_5K-316" style="edgeStyle=orthogonalEdgeStyle;rounded=0;orthogonalLoop=1;jettySize=auto;html=1;exitX=0;exitY=1;exitDx=0;exitDy=0;entryX=1;entryY=0.5;entryDx=0;entryDy=0;" parent="1" source="kQ22yX0z1VIjIpw_Q_5K-304" target="kQ22yX0z1VIjIpw_Q_5K-11" edge="1">
          <mxGeometry relative="1" as="geometry">
            <Array as="points">
              <mxPoint x="1642" y="-15" />
            </Array>
          </mxGeometry>
        </mxCell>
        <mxCell id="kQ22yX0z1VIjIpw_Q_5K-304" value="Costo_Electricidad" style="ellipse;whiteSpace=wrap;html=1;align=center;" parent="1" vertex="1">
          <mxGeometry x="1635" y="-200" width="120" height="40" as="geometry" />
        </mxCell>
        <mxCell id="kQ22yX0z1VIjIpw_Q_5K-318" style="edgeStyle=orthogonalEdgeStyle;rounded=0;orthogonalLoop=1;jettySize=auto;html=1;exitX=0;exitY=1;exitDx=0;exitDy=0;entryX=1;entryY=0.5;entryDx=0;entryDy=0;" parent="1" source="kQ22yX0z1VIjIpw_Q_5K-305" target="kQ22yX0z1VIjIpw_Q_5K-11" edge="1">
          <mxGeometry relative="1" as="geometry">
            <Array as="points">
              <mxPoint x="1738" y="-15" />
            </Array>
          </mxGeometry>
        </mxCell>
        <mxCell id="kQ22yX0z1VIjIpw_Q_5K-305" value="Abastecimiento_Gas" style="ellipse;whiteSpace=wrap;html=1;align=center;" parent="1" vertex="1">
          <mxGeometry x="1731" y="-120" width="120" height="40" as="geometry" />
        </mxCell>
        <mxCell id="kQ22yX0z1VIjIpw_Q_5K-319" style="edgeStyle=orthogonalEdgeStyle;rounded=0;orthogonalLoop=1;jettySize=auto;html=1;exitX=0;exitY=1;exitDx=0;exitDy=0;entryX=1;entryY=0.5;entryDx=0;entryDy=0;" parent="1" source="kQ22yX0z1VIjIpw_Q_5K-306" target="kQ22yX0z1VIjIpw_Q_5K-11" edge="1">
          <mxGeometry relative="1" as="geometry">
            <Array as="points">
              <mxPoint x="1795" y="-15" />
            </Array>
          </mxGeometry>
        </mxCell>
        <mxCell id="kQ22yX0z1VIjIpw_Q_5K-306" value="Costo_Gas" style="ellipse;whiteSpace=wrap;html=1;align=center;" parent="1" vertex="1">
          <mxGeometry x="1791" y="-80" width="100" height="40" as="geometry" />
        </mxCell>
        <mxCell id="ZopcdUyIjLMQ4f1iyohO-1" value="Provincia" style="whiteSpace=wrap;html=1;align=center;" parent="1" vertex="1">
          <mxGeometry x="1611" y="120" width="120" height="40" as="geometry" />
        </mxCell>
        <mxCell id="ZopcdUyIjLMQ4f1iyohO-5" value="Cantones" style="whiteSpace=wrap;html=1;align=center;" parent="1" vertex="1">
          <mxGeometry x="1281" y="120" width="100" height="40" as="geometry" />
        </mxCell>
        <mxCell id="ZopcdUyIjLMQ4f1iyohO-6" value="Parroquia" style="whiteSpace=wrap;html=1;align=center;" parent="1" vertex="1">
          <mxGeometry x="940" y="120" width="100" height="40" as="geometry" />
        </mxCell>
        <mxCell id="ZopcdUyIjLMQ4f1iyohO-12" style="edgeStyle=orthogonalEdgeStyle;rounded=0;orthogonalLoop=1;jettySize=auto;html=1;exitX=1;exitY=0.5;exitDx=0;exitDy=0;entryX=0;entryY=0.5;entryDx=0;entryDy=0;" parent="1" source="ZopcdUyIjLMQ4f1iyohO-10" target="ZopcdUyIjLMQ4f1iyohO-6" edge="1">
          <mxGeometry relative="1" as="geometry" />
        </mxCell>
        <mxCell id="ZopcdUyIjLMQ4f1iyohO-14" style="edgeStyle=orthogonalEdgeStyle;rounded=0;orthogonalLoop=1;jettySize=auto;html=1;exitX=0;exitY=0.5;exitDx=0;exitDy=0;entryX=1;entryY=0.5;entryDx=0;entryDy=0;" parent="1" source="ZopcdUyIjLMQ4f1iyohO-10" target="kQ22yX0z1VIjIpw_Q_5K-1" edge="1">
          <mxGeometry relative="1" as="geometry" />
        </mxCell>
        <mxCell id="ZopcdUyIjLMQ4f1iyohO-10" value="1:1" style="shape=rhombus;perimeter=rhombusPerimeter;whiteSpace=wrap;html=1;align=center;" parent="1" vertex="1">
          <mxGeometry x="730" y="105" width="120" height="70" as="geometry" />
        </mxCell>
        <mxCell id="RCfMNCTIA7jrwXTFkUlR-7" value="" style="edgeStyle=orthogonalEdgeStyle;rounded=0;orthogonalLoop=1;jettySize=auto;html=1;" parent="1" source="RCfMNCTIA7jrwXTFkUlR-6" target="ZopcdUyIjLMQ4f1iyohO-6" edge="1">
          <mxGeometry relative="1" as="geometry" />
        </mxCell>
        <mxCell id="RCfMNCTIA7jrwXTFkUlR-8" value="" style="edgeStyle=orthogonalEdgeStyle;rounded=0;orthogonalLoop=1;jettySize=auto;html=1;" parent="1" source="RCfMNCTIA7jrwXTFkUlR-6" target="ZopcdUyIjLMQ4f1iyohO-5" edge="1">
          <mxGeometry relative="1" as="geometry" />
        </mxCell>
        <mxCell id="RCfMNCTIA7jrwXTFkUlR-6" value="1:1" style="shape=rhombus;perimeter=rhombusPerimeter;whiteSpace=wrap;html=1;align=center;" parent="1" vertex="1">
          <mxGeometry x="1101" y="105" width="120" height="70" as="geometry" />
        </mxCell>
        <mxCell id="RCfMNCTIA7jrwXTFkUlR-10" value="" style="edgeStyle=orthogonalEdgeStyle;rounded=0;orthogonalLoop=1;jettySize=auto;html=1;" parent="1" source="RCfMNCTIA7jrwXTFkUlR-9" target="ZopcdUyIjLMQ4f1iyohO-5" edge="1">
          <mxGeometry relative="1" as="geometry" />
        </mxCell>
        <mxCell id="RCfMNCTIA7jrwXTFkUlR-11" value="" style="edgeStyle=orthogonalEdgeStyle;rounded=0;orthogonalLoop=1;jettySize=auto;html=1;" parent="1" source="RCfMNCTIA7jrwXTFkUlR-9" target="ZopcdUyIjLMQ4f1iyohO-1" edge="1">
          <mxGeometry relative="1" as="geometry" />
        </mxCell>
        <mxCell id="RCfMNCTIA7jrwXTFkUlR-9" value="1:1" style="shape=rhombus;perimeter=rhombusPerimeter;whiteSpace=wrap;html=1;align=center;" parent="1" vertex="1">
          <mxGeometry x="1440" y="105" width="120" height="70" as="geometry" />
        </mxCell>
        <mxCell id="yifIly_M_i_Lslrt3uDn-16" style="edgeStyle=orthogonalEdgeStyle;rounded=0;orthogonalLoop=1;jettySize=auto;html=1;exitX=0.5;exitY=1;exitDx=0;exitDy=0;entryX=0;entryY=0.5;entryDx=0;entryDy=0;" edge="1" parent="1" source="yifIly_M_i_Lslrt3uDn-14" target="kQ22yX0z1VIjIpw_Q_5K-8">
          <mxGeometry relative="1" as="geometry" />
        </mxCell>
        <mxCell id="yifIly_M_i_Lslrt3uDn-14" value="Tiene" style="shape=rhombus;perimeter=rhombusPerimeter;whiteSpace=wrap;html=1;align=center;" vertex="1" parent="1">
          <mxGeometry y="105" width="120" height="70" as="geometry" />
        </mxCell>
        <mxCell id="yifIly_M_i_Lslrt3uDn-17" value="1:M" style="text;html=1;align=center;verticalAlign=middle;resizable=0;points=[];autosize=1;strokeColor=none;fillColor=none;" vertex="1" parent="1">
          <mxGeometry x="330" y="-10" width="40" height="30" as="geometry" />
        </mxCell>
      </root>
    </mxGraphModel>
  </diagram>
</mxfile>
